<svg width="1771" height="2500" viewBox="0 0 1771 2500" fill="none" xmlns="http://www.w3.org/2000/svg">
<g clip-path="url(#clip0)">
<path d="M161.2 2299.1L0 491.4H1771L1609.6 2298.8L884.4 2499.8L161.2 2299.1Z" fill="#1572B6"/>
<path d="M885.5 2346.2L1471.5 2183.7L1609.3 639.2H885.5V2346.2Z" fill="#33A9DC"/>
<path d="M885.5 1294.1H1178.9L1199.1 1067.1H885.5V845.5H1441.5L1436.2 905L1381.7 1516H885.5V1294.1Z" fill="white"/>
<path d="M886.7 1869.9H885.7L638.8 1803.2L623 1626.4H400.6L431.7 1974.5L885.9 2100.9H887.2V1869.9H886.7Z" fill="#EBEBEB"/>
<path d="M1160.1 1506.3L1133.4 1803L886.1 1869.7V2100.7L1340.6 1974.7L1343.9 1937.2L1382.5 1506.2H1160.1V1506.3Z" fill="white"/>
<path d="M886.3 845.5V1067.2H350.9L346.3 1017.4L336.2 905L330.9 845.5H886.3ZM885.5 1294.1V1515.8H641.4L637.1 1466L627 1353.6L621.7 1294.1H885.4H885.5Z" fill="#EBEBEB"/>
</g>
<defs>
<clipPath id="clip0">
<rect width="1771" height="2499.8" fill="white"/>
</clipPath>
</defs>
</svg>
