<svg width="1771" height="2008" viewBox="0 0 1771 2008" fill="none" xmlns="http://www.w3.org/2000/svg">
<g clip-path="url(#clip0)">
<path d="M161.2 1807.7L0 0H1771L1609.6 1807.4L884.4 2008.4L161.2 1807.7Z" fill="#1572B6"/>
<path d="M885.4 334V555.7H350L345.4 505.9L335.3 393.5L330 334H885.4ZM884.6 782.6V1004.3H640.5L636.2 954.5L626.1 842.1L620.8 782.6H884.5H884.6Z" fill="#EBEBEB"/>
<path d="M885 1858L1471 1695.5L1608.8 151H885V1858Z" fill="#33A9DC"/>
<path d="M884.1 1333.5H883.1L636.2 1266.8L620.4 1090H398L429.1 1438.1L883.3 1564.5H884.6V1333.5H884.1Z" fill="#EBEBEB"/>
<path d="M1159 970.1L1132.3 1266.8L885 1333.5V1564.5L1339.5 1438.5L1342.8 1401L1381.4 970H1159V970.1Z" fill="white"/>
<path d="M885 782.6H1178.4L1198.6 555.6H885V334H1441L1435.7 393.5L1381.2 1004.5H885V782.6Z" fill="white"/>
</g>
<defs>
<clipPath id="clip0">
<rect width="1771" height="2008" fill="white"/>
</clipPath>
</defs>
</svg>
