<svg width="348" height="209" viewBox="0 0 348 209" fill="none" xmlns="http://www.w3.org/2000/svg">
<path d="M270.599 136.78L269.421 146.148L286.453 195.568L346.084 194.888L347.454 186.708L270.599 136.78Z" fill="white"/>
<path d="M286.453 196.076C286.349 196.076 286.247 196.044 286.161 195.984C286.076 195.924 286.011 195.839 285.976 195.741L268.944 146.311C268.924 146.237 268.924 146.16 268.944 146.087L270.122 136.719C270.129 136.632 270.159 136.548 270.209 136.476C270.259 136.404 270.327 136.347 270.406 136.31C270.486 136.273 270.573 136.257 270.661 136.265C270.748 136.273 270.831 136.303 270.903 136.353L347.749 186.281C347.832 186.334 347.898 186.411 347.938 186.501C347.977 186.591 347.989 186.692 347.972 186.789L346.612 194.97C346.593 195.088 346.532 195.196 346.441 195.274C346.35 195.352 346.234 195.395 346.115 195.396L286.483 196.076H286.453ZM269.939 146.097L286.818 195.061L345.688 194.381L346.927 186.951L271.035 137.642L269.939 146.097Z" fill="#231F20"/>
<path d="M287.843 187.053L270.588 136.78L322.607 136.536L347.434 186.708L287.843 187.053Z" fill="white"/>
<path d="M287.843 187.56C287.738 187.558 287.636 187.524 287.551 187.462C287.466 187.4 287.401 187.314 287.366 187.215L270.111 136.942C270.086 136.866 270.078 136.785 270.09 136.706C270.102 136.626 270.132 136.551 270.179 136.485C270.225 136.42 270.287 136.366 270.358 136.329C270.429 136.292 270.508 136.273 270.588 136.272L322.617 136.029C322.711 136.027 322.804 136.052 322.885 136.101C322.965 136.149 323.031 136.219 323.074 136.303L347.901 186.484C347.941 186.559 347.962 186.643 347.962 186.728C347.962 186.813 347.941 186.896 347.901 186.971C347.857 187.045 347.795 187.107 347.72 187.149C347.645 187.192 347.561 187.215 347.475 187.215L287.874 187.56H287.843ZM271.309 137.287L288.209 186.535L346.632 186.2L322.272 137.044L271.309 137.287Z" fill="#231F20"/>
<path d="M321.744 155.892H288.32C288.225 155.892 288.132 155.866 288.051 155.816C287.971 155.765 287.906 155.693 287.864 155.608L282.596 144.737C282.553 144.663 282.531 144.579 282.531 144.494C282.531 144.408 282.553 144.324 282.596 144.25C282.643 144.178 282.708 144.119 282.784 144.078C282.861 144.037 282.946 144.016 283.032 144.017H317.004C317.104 144.015 317.201 144.043 317.284 144.097C317.368 144.152 317.433 144.23 317.471 144.321L322.191 155.182C322.231 155.255 322.252 155.337 322.252 155.42C322.252 155.503 322.231 155.586 322.191 155.659C322.143 155.733 322.077 155.794 321.999 155.835C321.92 155.876 321.833 155.895 321.744 155.892V155.892ZM288.635 154.877H320.973L316.69 145.032H283.854L288.635 154.877Z" fill="#D1D3D4"/>
<path d="M286.453 196.076H286.372C286.239 196.051 286.122 195.976 286.044 195.866C285.967 195.756 285.935 195.62 285.956 195.487L287.346 186.971C287.357 186.905 287.38 186.841 287.416 186.783C287.451 186.726 287.497 186.676 287.552 186.636C287.607 186.597 287.669 186.568 287.734 186.553C287.8 186.537 287.868 186.534 287.935 186.545C288.001 186.556 288.065 186.579 288.123 186.615C288.18 186.65 288.23 186.697 288.27 186.751C288.309 186.806 288.338 186.868 288.354 186.933C288.369 186.999 288.372 187.067 288.361 187.134L286.971 195.65C286.951 195.772 286.887 195.882 286.792 195.96C286.697 196.039 286.576 196.08 286.453 196.076Z" fill="#231F20"/>
<path d="M30.4394 122.357C30.3194 122.363 30.2009 122.327 30.1045 122.255C30.053 122.213 30.0105 122.161 29.9795 122.102C29.9485 122.043 29.9296 121.979 29.924 121.913C29.9183 121.846 29.9259 121.78 29.9465 121.716C29.967 121.653 30 121.595 30.0436 121.545C30.7928 120.563 31.313 119.427 31.5659 118.219C31.8188 117.01 31.7981 115.761 31.5052 114.561C31.1416 113.308 30.6234 112.104 29.9624 110.978C29.5295 110.19 29.1366 109.38 28.785 108.553C28.0053 106.546 27.6916 104.389 27.8674 102.244C28.0432 100.099 28.704 98.0219 29.8 96.1695C29.8759 96.0641 29.9894 95.9918 30.1171 95.9676C30.2448 95.9433 30.3769 95.969 30.4862 96.0392C30.5955 96.1095 30.6737 96.219 30.7046 96.3453C30.7356 96.4715 30.717 96.6047 30.6526 96.7176C29.6502 98.4361 29.0443 100.357 28.8793 102.339C28.7142 104.322 28.9941 106.316 29.6985 108.177C30.0343 108.972 30.4138 109.748 30.8353 110.501C31.535 111.7 32.0807 112.982 32.4593 114.318C32.7876 115.672 32.8085 117.082 32.5204 118.445C32.2324 119.808 31.6427 121.089 30.7947 122.194C30.7491 122.243 30.6943 122.283 30.6333 122.311C30.5723 122.339 30.5064 122.354 30.4394 122.357V122.357Z" fill="#D1D3D4"/>
<path d="M18.7364 124.285C18.6589 124.288 18.5819 124.27 18.5131 124.234C18.4531 124.205 18.3994 124.164 18.3551 124.114C18.3109 124.064 18.2769 124.006 18.2552 123.943C18.2335 123.88 18.2245 123.813 18.2287 123.746C18.2329 123.679 18.2502 123.614 18.2797 123.554C20.0864 119.91 21.822 114.795 19.8123 111.09C19.3406 110.278 18.7788 109.522 18.1376 108.837C16.9473 107.691 16.1152 106.224 15.7422 104.614C15.3463 102.178 16.6049 99.925 17.7722 98.0067C17.8435 97.8923 17.9574 97.8109 18.0887 97.7804C18.2201 97.75 18.3581 97.7729 18.4725 97.8443C18.587 97.9156 18.6683 98.0295 18.6988 98.1608C18.7293 98.2921 18.7063 98.4302 18.6349 98.5446C17.5184 100.311 16.3613 102.361 16.6963 104.452C17.074 105.882 17.8522 107.174 18.9394 108.177C19.6237 108.919 20.226 109.732 20.736 110.603C22.9487 114.663 21.1318 120.144 19.2236 124.001C19.1808 124.092 19.1112 124.168 19.0242 124.219C18.9372 124.269 18.8369 124.293 18.7364 124.285V124.285Z" fill="#D1D3D4"/>
<path d="M40.9853 123.27C40.8779 123.272 40.7726 123.24 40.6845 123.179C40.5964 123.117 40.5301 123.029 40.4951 122.928C40.4602 122.826 40.4583 122.716 40.4898 122.614C40.5214 122.511 40.5847 122.421 40.6706 122.357C42.0612 121.342 42.0713 118.52 41.3913 116.429C41.168 115.749 40.8838 115.079 40.6199 114.399C39.9061 112.893 39.4563 111.276 39.2902 109.618C39.2152 108.523 39.3952 107.424 39.8161 106.41C40.237 105.396 40.8874 104.493 41.7161 103.772C41.8212 103.689 41.9549 103.651 42.088 103.666C42.2211 103.681 42.3428 103.748 42.4266 103.853C42.5095 103.958 42.5476 104.092 42.5324 104.225C42.5172 104.358 42.4499 104.48 42.3454 104.564C41.6504 105.19 41.1067 105.965 40.755 106.832C40.4034 107.699 40.2531 108.634 40.3154 109.568C40.4733 111.111 40.8992 112.616 41.574 114.013C41.848 114.683 42.1322 115.383 42.3657 116.094C43.1574 118.5 43.1574 121.737 41.3507 123.148C41.3009 123.192 41.243 123.225 41.1802 123.246C41.1175 123.267 41.0512 123.275 40.9853 123.27V123.27Z" fill="#D1D3D4"/>
<path d="M56.6974 199.009H278.485V204.003C278.485 205.247 277.991 206.44 277.112 207.319C276.232 208.198 275.039 208.692 273.796 208.692H61.3868C60.1431 208.692 58.9503 208.198 58.0709 207.319C57.1915 206.44 56.6974 205.247 56.6974 204.003V199.009V199.009Z" fill="black"/>
<path d="M274.719 203.171H60.5545C59.9529 203.171 59.36 203.027 58.825 202.752C58.29 202.477 57.8282 202.078 57.478 201.589C57.1277 201.1 56.8991 200.534 56.811 199.939C56.723 199.344 56.778 198.736 56.9715 198.167L76.2565 141.327C77.0924 138.882 78.6679 136.758 80.7647 135.249C82.8615 133.739 85.3759 132.919 87.9595 132.902H247.314C249.917 132.902 252.455 133.718 254.57 135.235C256.686 136.751 258.273 138.892 259.109 141.357L278.394 198.197C278.584 198.773 278.633 199.385 278.538 199.983C278.442 200.581 278.204 201.148 277.844 201.635C277.484 202.123 277.013 202.516 276.469 202.784C275.925 203.051 275.325 203.184 274.719 203.171V203.171Z" fill="white"/>
<path d="M274.719 203.638H60.5544C59.8754 203.643 59.205 203.486 58.5992 203.179C57.9935 202.872 57.4699 202.425 57.0724 201.875C56.6749 201.324 56.4151 200.686 56.3145 200.015C56.2139 199.343 56.2756 198.657 56.4944 198.015L75.7794 141.175C76.6426 138.626 78.2805 136.41 80.4643 134.838C82.648 133.266 85.2685 132.415 87.9594 132.405H247.314C250.01 132.42 252.633 133.277 254.818 134.857C257.002 136.436 258.637 138.66 259.494 141.215L278.779 198.055C278.998 198.698 279.06 199.384 278.959 200.055C278.859 200.727 278.599 201.365 278.201 201.915C277.804 202.466 277.28 202.913 276.675 203.22C276.069 203.527 275.398 203.684 274.719 203.678V203.638ZM87.9594 133.42C85.4554 133.418 83.0134 134.199 80.9763 135.656C78.9393 137.112 77.4094 139.17 76.6016 141.54L57.3166 198.38C57.1473 198.881 57.0998 199.415 57.178 199.938C57.2563 200.461 57.4581 200.958 57.7666 201.388C58.0751 201.817 58.4816 202.167 58.9523 202.409C59.423 202.65 59.9443 202.775 60.4732 202.775H274.719C275.248 202.773 275.768 202.646 276.237 202.404C276.707 202.162 277.112 201.813 277.42 201.384C277.728 200.955 277.93 200.459 278.01 199.937C278.089 199.415 278.043 198.881 277.876 198.38L258.591 141.54C257.782 139.171 256.252 137.114 254.215 135.658C252.178 134.202 249.737 133.419 247.233 133.42H87.9594Z" fill="#231F20"/>
<path d="M255.972 169.848H79.2C79.1214 169.848 79.0439 169.829 78.9736 169.794C78.9032 169.759 78.8418 169.708 78.794 169.645C78.7487 169.581 78.718 169.508 78.704 169.431C78.69 169.354 78.693 169.275 78.7128 169.199L87.1982 140.637C87.2304 140.532 87.2948 140.44 87.3824 140.375C87.4699 140.309 87.576 140.273 87.6854 140.271H247.487C247.597 140.271 247.704 140.307 247.791 140.373C247.879 140.439 247.943 140.531 247.974 140.637L256.449 169.199C256.474 169.274 256.48 169.354 256.465 169.432C256.451 169.51 256.418 169.584 256.368 169.645C256.323 169.708 256.264 169.759 256.195 169.795C256.126 169.83 256.05 169.848 255.972 169.848V169.848ZM79.8801 168.833H255.292L247.111 141.286H88.0711L79.8801 168.833Z" fill="#D1D3D4"/>
<path d="M200.624 195.518H134.568C134.492 195.517 134.417 195.499 134.349 195.465C134.28 195.432 134.22 195.384 134.172 195.325C134.127 195.265 134.094 195.196 134.076 195.123C134.059 195.049 134.057 194.973 134.071 194.899L138.446 175.035C138.469 174.92 138.531 174.817 138.622 174.743C138.712 174.669 138.826 174.629 138.943 174.629H196.24C196.357 174.629 196.47 174.669 196.561 174.743C196.651 174.817 196.714 174.92 196.737 175.035L201.101 194.888C201.116 194.963 201.115 195.039 201.097 195.113C201.079 195.186 201.045 195.255 200.997 195.314C200.95 195.373 200.89 195.421 200.822 195.455C200.754 195.488 200.68 195.506 200.604 195.508L200.624 195.518ZM135.218 194.503H199.995L195.854 175.654H139.349L135.218 194.503Z" fill="#D1D3D4"/>
<path d="M249.598 1.31776H85.4321C81.7996 1.31776 78.8549 4.26248 78.8549 7.89497V126.325C78.8549 129.958 81.7996 132.902 85.4321 132.902H249.598C253.231 132.902 256.175 129.958 256.175 126.325V7.89497C256.175 4.26248 253.231 1.31776 249.598 1.31776Z" fill="white"/>
<path d="M249.588 133.42H85.4321C83.5688 133.404 81.7863 132.657 80.4687 131.339C79.1512 130.022 78.4039 128.239 78.388 126.376V7.89496C78.4039 6.03167 79.1512 4.2492 80.4687 2.93161C81.7863 1.61402 83.5688 0.866764 85.4321 0.850861H249.588C251.456 0.850861 253.248 1.59301 254.569 2.91403C255.89 4.23506 256.632 6.02675 256.632 7.89496V126.315C256.632 128.189 255.892 129.987 254.573 131.318C253.253 132.648 251.462 133.404 249.588 133.42V133.42ZM85.4321 1.77451C83.8169 1.77451 82.2679 2.41613 81.1258 3.55823C79.9837 4.70033 79.3421 6.24934 79.3421 7.86451V126.315C79.3421 127.93 79.9837 129.479 81.1258 130.621C82.2679 131.763 83.8169 132.405 85.4321 132.405H249.588C251.203 132.405 252.752 131.763 253.894 130.621C255.036 129.479 255.678 127.93 255.678 126.315V7.89496C255.678 6.27979 255.036 4.73078 253.894 3.58868C252.752 2.44659 251.203 1.80496 249.588 1.80496L85.4321 1.77451Z" fill="#231F20"/>
<path d="M249.436 8.43291H85.2088V125.605H249.436V8.43291Z" fill="black"/>
<path d="M137.167 8.43291H85.2088V125.605H137.167V8.43291Z" fill="#D1D3D4"/>
<path d="M162.166 46.0387H153.234C153.1 46.0361 152.973 45.9818 152.878 45.8871C152.783 45.7925 152.729 45.665 152.727 45.5312C152.727 45.3966 152.78 45.2675 152.875 45.1723C152.97 45.0771 153.099 45.0237 153.234 45.0237H162.166C162.301 45.0237 162.43 45.0771 162.525 45.1723C162.62 45.2675 162.674 45.3966 162.674 45.5312C162.674 45.6658 162.62 45.7948 162.525 45.89C162.43 45.9852 162.301 46.0387 162.166 46.0387Z" fill="white"/>
<path d="M184.679 46.0387H166.866C166.732 46.0361 166.604 45.9818 166.51 45.8871C166.415 45.7925 166.361 45.665 166.358 45.5312C166.358 45.3966 166.412 45.2675 166.507 45.1723C166.602 45.0771 166.731 45.0237 166.866 45.0237H184.679C184.813 45.0237 184.942 45.0771 185.038 45.1723C185.133 45.2675 185.186 45.3966 185.186 45.5312C185.186 45.5978 185.173 45.6638 185.148 45.7254C185.122 45.7869 185.085 45.8429 185.038 45.89C184.991 45.9371 184.935 45.9745 184.873 46C184.811 46.0255 184.745 46.0387 184.679 46.0387Z" fill="#68E1FD"/>
<path d="M190.048 52.2911H172.204C172.07 52.2911 171.941 52.2376 171.846 52.1424C171.75 52.0472 171.697 51.9182 171.697 51.7836C171.697 51.649 171.75 51.5199 171.846 51.4247C171.941 51.3295 172.07 51.2761 172.204 51.2761H190.018C190.152 51.2761 190.281 51.3295 190.377 51.4247C190.472 51.5199 190.525 51.649 190.525 51.7836C190.525 51.9182 190.472 52.0472 190.377 52.1424C190.281 52.2376 190.152 52.2911 190.018 52.2911H190.048Z" fill="#68E1FD"/>
<path d="M164.267 52.2911H155.335C155.201 52.2911 155.071 52.2376 154.976 52.1424C154.881 52.0472 154.828 51.9182 154.828 51.7836C154.828 51.649 154.881 51.5199 154.976 51.4247C155.071 51.3295 155.201 51.2761 155.335 51.2761H164.267C164.402 51.2761 164.531 51.3295 164.626 51.4247C164.721 51.5199 164.775 51.649 164.775 51.7836C164.775 51.9182 164.721 52.0472 164.626 52.1424C164.531 52.2376 164.402 52.2911 164.267 52.2911Z" fill="white"/>
<path d="M164.602 58.5435H157.426C157.291 58.5435 157.162 58.49 157.067 58.3948C156.972 58.2996 156.919 58.1706 156.919 58.036C156.919 57.9014 156.972 57.7723 157.067 57.6771C157.162 57.5819 157.291 57.5285 157.426 57.5285H164.602C164.737 57.5285 164.866 57.5819 164.961 57.6771C165.056 57.7723 165.11 57.9014 165.11 58.036C165.11 58.1706 165.056 58.2996 164.961 58.3948C164.866 58.49 164.737 58.5435 164.602 58.5435Z" fill="white"/>
<path d="M193.235 58.5435H170.905C170.771 58.5435 170.642 58.49 170.546 58.3948C170.451 58.2996 170.398 58.1706 170.398 58.036C170.398 57.9014 170.451 57.7723 170.546 57.6771C170.642 57.5819 170.771 57.5285 170.905 57.5285H193.235C193.37 57.5285 193.499 57.5819 193.594 57.6771C193.689 57.7723 193.743 57.9014 193.743 58.036C193.743 58.1706 193.689 58.2996 193.594 58.3948C193.499 58.49 193.37 58.5435 193.235 58.5435Z" fill="#68E1FD"/>
<path d="M168.459 64.7959H159.527C159.392 64.7959 159.263 64.7424 159.168 64.6472C159.073 64.552 159.02 64.423 159.02 64.2884C159.02 64.1538 159.073 64.0247 159.168 63.9295C159.263 63.8343 159.392 63.7809 159.527 63.7809H168.459C168.593 63.7835 168.72 63.8378 168.815 63.9324C168.91 64.027 168.964 64.1546 168.967 64.2884C168.967 64.423 168.913 64.552 168.818 64.6472C168.723 64.7424 168.594 64.7959 168.459 64.7959Z" fill="white"/>
<path d="M197.843 64.7959H171.332C171.197 64.7959 171.068 64.7424 170.973 64.6472C170.878 64.552 170.824 64.423 170.824 64.2884C170.824 64.1538 170.878 64.0247 170.973 63.9295C171.068 63.8343 171.197 63.7809 171.332 63.7809H197.843C197.978 63.7809 198.107 63.8343 198.202 63.9295C198.297 64.0247 198.351 64.1538 198.351 64.2884C198.351 64.423 198.297 64.552 198.202 64.6472C198.107 64.7424 197.978 64.7959 197.843 64.7959Z" fill="#68E1FD"/>
<path d="M166.114 71.0483H157.193C157.058 71.0483 156.929 70.9948 156.834 70.8996C156.739 70.8044 156.685 70.6754 156.685 70.5408C156.685 70.4062 156.739 70.2771 156.834 70.1819C156.929 70.0867 157.058 70.0333 157.193 70.0333H166.114C166.249 70.0333 166.378 70.0867 166.473 70.1819C166.568 70.2771 166.622 70.4062 166.622 70.5408C166.622 70.6754 166.568 70.8044 166.473 70.8996C166.378 70.9948 166.249 71.0483 166.114 71.0483Z" fill="white"/>
<path d="M183.887 71.0483H169.505C169.37 71.0483 169.241 70.9948 169.146 70.8996C169.051 70.8044 168.997 70.6754 168.997 70.5408C169 70.407 169.054 70.2794 169.149 70.1848C169.243 70.0902 169.371 70.0359 169.505 70.0333H183.887C184.021 70.0359 184.148 70.0902 184.243 70.1848C184.338 70.2794 184.392 70.407 184.395 70.5408C184.395 70.6754 184.341 70.8044 184.246 70.8996C184.151 70.9948 184.022 71.0483 183.887 71.0483Z" fill="#68E1FD"/>
<path d="M203.751 71.0483H189.378C189.244 71.0483 189.115 70.9948 189.019 70.8996C188.924 70.8044 188.871 70.6754 188.871 70.5408C188.871 70.4062 188.924 70.2771 189.019 70.1819C189.115 70.0867 189.244 70.0333 189.378 70.0333H203.751C203.885 70.0333 204.014 70.0867 204.11 70.1819C204.205 70.2771 204.258 70.4062 204.258 70.5408C204.258 70.6754 204.205 70.8044 204.11 70.8996C204.014 70.9948 203.885 71.0483 203.751 71.0483Z" fill="#68E1FD"/>
<path d="M160.238 77.3007H157.193C157.058 77.3007 156.929 77.2472 156.834 77.152C156.739 77.0568 156.685 76.9278 156.685 76.7932C156.685 76.6586 156.739 76.5295 156.834 76.4343C156.929 76.3391 157.058 76.2857 157.193 76.2857H160.238C160.371 76.2883 160.499 76.3426 160.594 76.4372C160.688 76.5318 160.743 76.6594 160.745 76.7932C160.745 76.9278 160.692 77.0568 160.596 77.152C160.501 77.2472 160.372 77.3007 160.238 77.3007Z" fill="white"/>
<path d="M183.887 77.3007H165.475C165.34 77.3007 165.211 77.2472 165.116 77.152C165.021 77.0568 164.967 76.9278 164.967 76.7932C164.97 76.6594 165.024 76.5318 165.119 76.4372C165.214 76.3426 165.341 76.2883 165.475 76.2857H183.887C184.021 76.2883 184.148 76.3426 184.243 76.4372C184.338 76.5318 184.392 76.6594 184.395 76.7932C184.395 76.9278 184.341 77.0568 184.246 77.152C184.151 77.2472 184.022 77.3007 183.887 77.3007Z" fill="#68E1FD"/>
<path d="M191.134 77.3007H185.998C185.864 77.3007 185.735 77.2472 185.639 77.152C185.544 77.0568 185.491 76.9278 185.491 76.7932C185.493 76.6594 185.548 76.5318 185.642 76.4372C185.737 76.3426 185.864 76.2883 185.998 76.2857H191.134C191.269 76.2857 191.398 76.3391 191.493 76.4343C191.588 76.5295 191.642 76.6586 191.642 76.7932C191.642 76.9278 191.588 77.0568 191.493 77.152C191.398 77.2472 191.269 77.3007 191.134 77.3007Z" fill="#68E1FD"/>
<path d="M161.994 83.5632H157.162C157.028 83.5632 156.898 83.5097 156.803 83.4146C156.708 83.3194 156.655 83.1903 156.655 83.0557C156.655 82.9211 156.708 82.792 156.803 82.6969C156.898 82.6017 157.028 82.5482 157.162 82.5482H161.994C162.128 82.5482 162.257 82.6017 162.352 82.6969C162.448 82.792 162.501 82.9211 162.501 83.0557C162.498 83.1895 162.444 83.3171 162.35 83.4117C162.255 83.5063 162.127 83.5606 161.994 83.5632V83.5632Z" fill="white"/>
<path d="M188.444 83.5632H166.541C166.406 83.5632 166.277 83.5097 166.182 83.4146C166.087 83.3194 166.033 83.1903 166.033 83.0557C166.033 82.9211 166.087 82.792 166.182 82.6969C166.277 82.6017 166.406 82.5482 166.541 82.5482H188.444C188.579 82.5482 188.708 82.6017 188.803 82.6969C188.898 82.792 188.952 82.9211 188.952 83.0557C188.949 83.1895 188.895 83.3171 188.8 83.4117C188.706 83.5063 188.578 83.5606 188.444 83.5632V83.5632Z" fill="#68E1FD"/>
<path d="M199.478 83.5632H190.546C190.412 83.5606 190.284 83.5063 190.19 83.4117C190.095 83.3171 190.041 83.1895 190.038 83.0557C190.038 82.9211 190.091 82.792 190.187 82.6969C190.282 82.6017 190.411 82.5482 190.546 82.5482H199.478C199.612 82.5482 199.741 82.6017 199.836 82.6969C199.932 82.792 199.985 82.9211 199.985 83.0557C199.985 83.1903 199.932 83.3194 199.836 83.4146C199.741 83.5097 199.612 83.5632 199.478 83.5632Z" fill="#68E1FD"/>
<path d="M159.801 89.775H155.061C154.926 89.775 154.797 89.7215 154.702 89.6264C154.607 89.5312 154.554 89.4021 154.554 89.2675C154.554 89.1329 154.607 89.0038 154.702 88.9087C154.797 88.8135 154.926 88.76 155.061 88.76H159.801C159.936 88.76 160.065 88.8135 160.16 88.9087C160.255 89.0038 160.309 89.1329 160.309 89.2675C160.306 89.4013 160.252 89.5289 160.157 89.6235C160.063 89.7181 159.935 89.7724 159.801 89.775V89.775Z" fill="white"/>
<path d="M185.998 89.775H165.313C165.179 89.7724 165.051 89.7181 164.957 89.6235C164.862 89.5289 164.808 89.4013 164.805 89.2675C164.805 89.1329 164.859 89.0038 164.954 88.9087C165.049 88.8135 165.178 88.76 165.313 88.76H185.998C186.133 88.76 186.262 88.8135 186.357 88.9087C186.452 89.0038 186.506 89.1329 186.506 89.2675C186.506 89.4021 186.452 89.5312 186.357 89.6264C186.262 89.7215 186.133 89.775 185.998 89.775Z" fill="#68E1FD"/>
<path d="M163.993 96.068H155.061C154.926 96.068 154.797 96.0145 154.702 95.9194C154.607 95.8242 154.554 95.6951 154.554 95.5605C154.554 95.4259 154.607 95.2968 154.702 95.2017C154.797 95.1065 154.926 95.053 155.061 95.053H163.993C164.128 95.053 164.257 95.1065 164.352 95.2017C164.447 95.2968 164.501 95.4259 164.501 95.5605C164.498 95.6943 164.444 95.8219 164.349 95.9165C164.254 96.0111 164.127 96.0654 163.993 96.068V96.068Z" fill="white"/>
<path d="M174.234 102.32H156.381C156.247 102.318 156.119 102.264 156.025 102.169C155.93 102.074 155.876 101.947 155.873 101.813C155.873 101.678 155.927 101.549 156.022 101.454C156.117 101.359 156.246 101.305 156.381 101.305H174.234C174.369 101.305 174.498 101.359 174.593 101.454C174.688 101.549 174.742 101.678 174.742 101.813C174.742 101.948 174.688 102.077 174.593 102.172C174.498 102.267 174.369 102.32 174.234 102.32Z" fill="white"/>
<path d="M191.134 102.32H178.751C178.617 102.32 178.488 102.267 178.392 102.172C178.297 102.077 178.244 101.948 178.244 101.813C178.244 101.678 178.297 101.549 178.392 101.454C178.488 101.359 178.617 101.305 178.751 101.305H191.134C191.269 101.305 191.398 101.359 191.493 101.454C191.588 101.549 191.642 101.678 191.642 101.813C191.642 101.948 191.588 102.077 191.493 102.172C191.398 102.267 191.269 102.32 191.134 102.32Z" fill="#68E1FD"/>
<path d="M208.237 102.32H192.91C192.776 102.32 192.647 102.267 192.552 102.172C192.456 102.077 192.403 101.948 192.403 101.813C192.403 101.678 192.456 101.549 192.552 101.454C192.647 101.359 192.776 101.305 192.91 101.305H208.237C208.372 101.305 208.501 101.359 208.596 101.454C208.691 101.549 208.744 101.678 208.744 101.813C208.744 101.948 208.691 102.077 208.596 102.172C208.501 102.267 208.372 102.32 208.237 102.32Z" fill="#68E1FD"/>
<path d="M183.126 108.573H157.162C157.028 108.573 156.898 108.519 156.803 108.424C156.708 108.329 156.655 108.2 156.655 108.065C156.655 107.931 156.708 107.802 156.803 107.706C156.898 107.611 157.028 107.558 157.162 107.558H183.126C183.26 107.558 183.39 107.611 183.485 107.706C183.58 107.802 183.633 107.931 183.633 108.065C183.633 108.2 183.58 108.329 183.485 108.424C183.39 108.519 183.26 108.573 183.126 108.573Z" fill="white"/>
<path d="M198.178 108.573H186.496C186.361 108.573 186.232 108.519 186.137 108.424C186.042 108.329 185.988 108.2 185.988 108.065C185.988 107.931 186.042 107.802 186.137 107.706C186.232 107.611 186.361 107.558 186.496 107.558H198.178C198.313 107.558 198.442 107.611 198.537 107.706C198.632 107.802 198.686 107.931 198.686 108.065C198.686 108.2 198.632 108.329 198.537 108.424C198.442 108.519 198.313 108.573 198.178 108.573Z" fill="#68E1FD"/>
<path d="M234.901 108.573H207.496C207.361 108.573 207.232 108.519 207.137 108.424C207.042 108.329 206.989 108.2 206.989 108.065C206.989 107.931 207.042 107.802 207.137 107.706C207.232 107.611 207.361 107.558 207.496 107.558H234.901C235.036 107.558 235.165 107.611 235.26 107.706C235.355 107.802 235.409 107.931 235.409 108.065C235.409 108.2 235.355 108.329 235.26 108.424C235.165 108.519 235.036 108.573 234.901 108.573Z" fill="#68E1FD"/>
<path d="M213.525 64.7959H201.447C201.312 64.7959 201.183 64.7424 201.088 64.6472C200.993 64.552 200.939 64.423 200.939 64.2884C200.942 64.1546 200.996 64.027 201.091 63.9324C201.185 63.8378 201.313 63.7835 201.447 63.7809H213.525C213.659 63.7835 213.786 63.8378 213.881 63.9324C213.976 64.027 214.03 64.1546 214.033 64.2884C214.033 64.423 213.979 64.552 213.884 64.6472C213.789 64.7424 213.66 64.7959 213.525 64.7959Z" fill="#68E1FD"/>
<path d="M222.467 64.8669C218.285 64.8669 218.153 64.7857 218.052 64.735C217.935 64.6689 217.849 64.5591 217.813 64.4297C217.777 64.3003 217.793 64.1619 217.859 64.0448C217.911 63.9446 217.996 63.8656 218.1 63.8212C218.203 63.7768 218.319 63.7697 218.428 63.8012C219.138 63.8824 226.923 63.8012 232.039 63.8012C232.173 63.8012 232.302 63.8546 232.398 63.9498C232.493 64.045 232.546 64.1741 232.546 64.3087C232.546 64.4433 232.493 64.5723 232.398 64.6675C232.302 64.7627 232.173 64.8162 232.039 64.8162C227.563 64.8466 224.528 64.8669 222.467 64.8669Z" fill="#68E1FD"/>
<path d="M211.597 52.2911H194.068C193.933 52.2911 193.804 52.2376 193.709 52.1424C193.614 52.0472 193.56 51.9182 193.56 51.7836C193.56 51.649 193.614 51.5199 193.709 51.4247C193.804 51.3295 193.933 51.2761 194.068 51.2761H211.597C211.731 51.2761 211.86 51.3295 211.955 51.4247C212.051 51.5199 212.104 51.649 212.104 51.7836C212.104 51.9182 212.051 52.0472 211.955 52.1424C211.86 52.2376 211.731 52.2911 211.597 52.2911Z" fill="#68E1FD"/>
<path d="M232.546 52.2911H215.109C214.974 52.2911 214.845 52.2376 214.75 52.1424C214.654 52.0472 214.601 51.9182 214.601 51.7836C214.601 51.649 214.654 51.5199 214.75 51.4247C214.845 51.3295 214.974 51.2761 215.109 51.2761H232.546C232.681 51.2761 232.81 51.3295 232.905 51.4247C233 51.5199 233.054 51.649 233.054 51.7836C233.054 51.9182 233 52.0472 232.905 52.1424C232.81 52.2376 232.681 52.2911 232.546 52.2911Z" fill="#68E1FD"/>
<path d="M195.468 46.0691C189.378 46.0691 189.297 46.0691 189.236 46.0691C189.107 46.0314 188.998 45.9439 188.933 45.8259C188.869 45.7079 188.853 45.569 188.891 45.4398C188.924 45.3217 188.999 45.2196 189.102 45.1525C189.204 45.0853 189.328 45.0576 189.449 45.0744C190.119 45.0744 201.822 45.0744 209.577 45.0744C209.711 45.0744 209.84 45.1279 209.936 45.223C210.031 45.3182 210.084 45.4473 210.084 45.5819C210.084 45.7165 210.031 45.8456 209.936 45.9408C209.84 46.0359 209.711 46.0894 209.577 46.0894L195.468 46.0691Z" fill="#68E1FD"/>
<path d="M214.357 46.0387C214.284 46.0387 214.211 46.0224 214.144 45.9908C214.077 45.9592 214.018 45.9131 213.972 45.856C213.886 45.7517 213.844 45.6179 213.855 45.4832C213.867 45.3486 213.93 45.2237 214.033 45.1353C214.215 44.9932 214.428 44.8105 226.355 45.0237C226.489 45.0237 226.618 45.0771 226.714 45.1723C226.809 45.2675 226.862 45.3966 226.862 45.5312C226.862 45.6658 226.809 45.7948 226.714 45.89C226.618 45.9852 226.489 46.0387 226.355 46.0387C222.163 45.9575 215.301 45.8864 214.56 46.0387C214.493 46.0506 214.425 46.0506 214.357 46.0387Z" fill="white"/>
<path d="M197.427 89.775H188.444C188.31 89.775 188.181 89.7215 188.086 89.6264C187.99 89.5312 187.937 89.4021 187.937 89.2675C187.937 89.1329 187.99 89.0038 188.086 88.9087C188.181 88.8135 188.31 88.76 188.444 88.76H197.478C197.613 88.76 197.742 88.8135 197.837 88.9087C197.932 89.0038 197.985 89.1329 197.985 89.2675C197.984 89.3382 197.969 89.4079 197.94 89.4723C197.91 89.5367 197.868 89.5944 197.816 89.642C197.764 89.6895 197.702 89.7259 197.635 89.7487C197.569 89.7716 197.498 89.7806 197.427 89.775V89.775Z" fill="#68E1FD"/>
<path d="M176.691 96.068H170.053C169.918 96.068 169.789 96.0145 169.694 95.9194C169.599 95.8242 169.545 95.6951 169.545 95.5605C169.545 95.4259 169.599 95.2968 169.694 95.2017C169.789 95.1065 169.918 95.053 170.053 95.053H176.691C176.825 95.053 176.954 95.1065 177.05 95.2017C177.145 95.2968 177.198 95.4259 177.198 95.5605C177.198 95.6951 177.145 95.8242 177.05 95.9194C176.954 96.0145 176.825 96.068 176.691 96.068Z" fill="#68E1FD"/>
<path d="M195.011 96.068H179.218C179.084 96.0654 178.957 96.0111 178.862 95.9165C178.768 95.8219 178.713 95.6943 178.711 95.5605C178.711 95.4259 178.764 95.2968 178.859 95.2017C178.954 95.1065 179.084 95.053 179.218 95.053H195.011C195.146 95.053 195.275 95.1065 195.37 95.2017C195.466 95.2968 195.519 95.4259 195.519 95.5605C195.519 95.6951 195.466 95.8242 195.37 95.9194C195.275 96.0145 195.146 96.068 195.011 96.068Z" fill="white"/>
<path d="M228.781 96.068H198.178C198.044 96.068 197.915 96.0145 197.819 95.9194C197.724 95.8242 197.671 95.6951 197.671 95.5605C197.671 95.4259 197.724 95.2968 197.819 95.2017C197.915 95.1065 198.044 95.053 198.178 95.053H228.781C228.915 95.053 229.044 95.1065 229.139 95.2017C229.235 95.2968 229.288 95.4259 229.288 95.5605C229.285 95.6943 229.231 95.8219 229.137 95.9165C229.042 96.0111 228.914 96.0654 228.781 96.068V96.068Z" fill="#68E1FD"/>
<path d="M162.268 28.6416H153.336C153.201 28.6416 153.072 28.5881 152.977 28.4929C152.882 28.3977 152.828 28.2687 152.828 28.1341C152.828 27.9995 152.882 27.8704 152.977 27.7752C153.072 27.68 153.201 27.6266 153.336 27.6266H162.268C162.402 27.6266 162.531 27.68 162.626 27.7752C162.722 27.8704 162.775 27.9995 162.775 28.1341C162.773 28.2678 162.718 28.3954 162.624 28.49C162.529 28.5847 162.401 28.639 162.268 28.6416V28.6416Z" fill="white"/>
<path d="M172.468 34.894H154.655C154.521 34.894 154.391 34.8405 154.296 34.7453C154.201 34.6501 154.148 34.5211 154.148 34.3865C154.148 34.2519 154.201 34.1228 154.296 34.0276C154.391 33.9324 154.521 33.879 154.655 33.879H172.468C172.603 33.879 172.732 33.9324 172.827 34.0276C172.922 34.1228 172.976 34.2519 172.976 34.3865C172.976 34.5211 172.922 34.6501 172.827 34.7453C172.732 34.8405 172.603 34.894 172.468 34.894Z" fill="white"/>
<path d="M189.459 34.894H177.076C176.942 34.894 176.813 34.8405 176.718 34.7453C176.622 34.6501 176.569 34.5211 176.569 34.3865C176.569 34.2519 176.622 34.1228 176.718 34.0276C176.813 33.9324 176.942 33.879 177.076 33.879H189.459C189.594 33.879 189.723 33.9324 189.818 34.0276C189.913 34.1228 189.967 34.2519 189.967 34.3865C189.967 34.5211 189.913 34.6501 189.818 34.7453C189.723 34.8405 189.594 34.894 189.459 34.894Z" fill="#68E1FD"/>
<path d="M206.511 34.894H191.185C191.05 34.894 190.921 34.8405 190.826 34.7453C190.731 34.6501 190.677 34.5211 190.677 34.3865C190.677 34.2519 190.731 34.1228 190.826 34.0276C190.921 33.9324 191.05 33.879 191.185 33.879H206.511C206.646 33.879 206.775 33.9324 206.87 34.0276C206.965 34.1228 207.019 34.2519 207.019 34.3865C207.019 34.5211 206.965 34.6501 206.87 34.7453C206.775 34.8405 206.646 34.894 206.511 34.894Z" fill="#68E1FD"/>
<path d="M181.4 41.1464H155.437C155.302 41.1464 155.173 41.0929 155.078 40.9977C154.983 40.9025 154.929 40.7735 154.929 40.6389C154.929 40.5043 154.983 40.3752 155.078 40.28C155.173 40.1848 155.302 40.1314 155.437 40.1314H181.4C181.535 40.1314 181.664 40.1848 181.759 40.28C181.854 40.3752 181.908 40.5043 181.908 40.6389C181.908 40.7735 181.854 40.9025 181.759 40.9977C181.664 41.0929 181.535 41.1464 181.4 41.1464Z" fill="white"/>
<path d="M196.453 41.1464H184.77C184.636 41.1464 184.506 41.0929 184.411 40.9977C184.316 40.9025 184.263 40.7735 184.263 40.6389C184.263 40.5043 184.316 40.3752 184.411 40.28C184.506 40.1848 184.636 40.1314 184.77 40.1314H196.453C196.587 40.1314 196.716 40.1848 196.812 40.28C196.907 40.3752 196.96 40.5043 196.96 40.6389C196.96 40.7735 196.907 40.9025 196.812 40.9977C196.716 41.0929 196.587 41.1464 196.453 41.1464Z" fill="#68E1FD"/>
<path d="M233.176 41.1464H205.771C205.636 41.1464 205.507 41.0929 205.412 40.9977C205.316 40.9025 205.263 40.7735 205.263 40.6389C205.263 40.5043 205.316 40.3752 205.412 40.28C205.507 40.1848 205.636 40.1314 205.771 40.1314H233.176C233.31 40.1314 233.439 40.1848 233.534 40.28C233.63 40.3752 233.683 40.5043 233.683 40.6389C233.683 40.7735 233.63 40.9025 233.534 40.9977C233.439 41.0929 233.31 41.1464 233.176 41.1464Z" fill="#68E1FD"/>
<path d="M174.965 28.6416H168.327C168.193 28.6416 168.063 28.5881 167.968 28.4929C167.873 28.3977 167.82 28.2687 167.82 28.1341C167.82 27.9995 167.873 27.8704 167.968 27.7752C168.063 27.68 168.193 27.6266 168.327 27.6266H174.965C175.1 27.6266 175.229 27.68 175.324 27.7752C175.419 27.8704 175.473 27.9995 175.473 28.1341C175.473 28.2687 175.419 28.3977 175.324 28.4929C175.229 28.5881 175.1 28.6416 174.965 28.6416Z" fill="#68E1FD"/>
<path d="M193.286 28.6416H177.493C177.359 28.639 177.231 28.5847 177.137 28.49C177.042 28.3954 176.988 28.2678 176.985 28.1341C176.985 27.9995 177.039 27.8704 177.134 27.7752C177.229 27.68 177.358 27.6266 177.493 27.6266H193.286C193.421 27.6266 193.55 27.68 193.645 27.7752C193.74 27.8704 193.794 27.9995 193.794 28.1341C193.794 28.2687 193.74 28.3977 193.645 28.4929C193.55 28.5881 193.421 28.6416 193.286 28.6416Z" fill="white"/>
<path d="M227.014 28.6416H196.453C196.318 28.6416 196.189 28.5881 196.094 28.4929C195.999 28.3977 195.945 28.2687 195.945 28.1341C195.945 27.9995 195.999 27.8704 196.094 27.7752C196.189 27.68 196.318 27.6266 196.453 27.6266H227.014C227.149 27.6266 227.278 27.68 227.373 27.7752C227.468 27.8704 227.522 27.9995 227.522 28.1341C227.519 28.2678 227.465 28.3954 227.37 28.49C227.276 28.5847 227.148 28.639 227.014 28.6416Z" fill="#68E1FD"/>
<path d="M167.667 115.505H155.701C155.566 115.505 155.437 115.452 155.342 115.357C155.247 115.261 155.193 115.132 155.193 114.998C155.196 114.864 155.25 114.736 155.345 114.642C155.439 114.547 155.567 114.493 155.701 114.49H167.667C167.802 114.49 167.931 114.544 168.026 114.639C168.121 114.734 168.175 114.863 168.175 114.998C168.175 115.132 168.121 115.261 168.026 115.357C167.931 115.452 167.802 115.505 167.667 115.505Z" fill="#68E1FD"/>
<path d="M175.777 115.505H172.204C172.07 115.505 171.941 115.452 171.846 115.357C171.75 115.261 171.697 115.132 171.697 114.998C171.697 114.863 171.75 114.734 171.846 114.639C171.941 114.544 172.07 114.49 172.204 114.49H175.747C175.881 114.493 176.008 114.547 176.103 114.642C176.197 114.736 176.252 114.864 176.254 114.998C176.255 115.127 176.205 115.252 176.117 115.346C176.028 115.441 175.907 115.497 175.777 115.505V115.505Z" fill="#68E1FD"/>
<path d="M158.695 120.672H153.234C153.099 120.672 152.97 120.618 152.875 120.523C152.78 120.428 152.727 120.299 152.727 120.164C152.727 120.03 152.78 119.9 152.875 119.805C152.97 119.71 153.099 119.657 153.234 119.657H158.695C158.829 119.657 158.958 119.71 159.054 119.805C159.149 119.9 159.202 120.03 159.202 120.164C159.202 120.299 159.149 120.428 159.054 120.523C158.958 120.618 158.829 120.672 158.695 120.672Z" fill="#68E1FD"/>
<path d="M147.043 27.1495H145.51V28.6822H147.043V27.1495Z" fill="#D1D3D4"/>
<path d="M147.043 33.3004H145.51V34.8331H147.043V33.3004Z" fill="#D1D3D4"/>
<path d="M147.043 39.4513H145.51V40.984H147.043V39.4513Z" fill="#D1D3D4"/>
<path d="M147.043 45.6022H145.51V47.1349H147.043V45.6022Z" fill="#D1D3D4"/>
<path d="M147.043 51.7531H145.51V53.2858H147.043V51.7531Z" fill="#D1D3D4"/>
<path d="M147.043 57.904H145.51V59.4367H147.043V57.904Z" fill="#D1D3D4"/>
<path d="M147.043 64.0651H145.51V65.5977H147.043V64.0651Z" fill="#D1D3D4"/>
<path d="M147.043 70.216H145.51V71.7486H147.043V70.216Z" fill="#D1D3D4"/>
<path d="M147.043 76.3669H145.51V77.8995H147.043V76.3669Z" fill="#D1D3D4"/>
<path d="M147.043 82.5178H145.51V84.0504H147.043V82.5178Z" fill="#D1D3D4"/>
<path d="M147.043 88.6687H145.51V90.2013H147.043V88.6687Z" fill="#D1D3D4"/>
<path d="M147.043 94.8196H145.51V96.3522H147.043V94.8196Z" fill="#D1D3D4"/>
<path d="M147.043 100.97H145.51V102.503H147.043V100.97Z" fill="#D1D3D4"/>
<path d="M147.043 107.121H145.51V108.654H147.043V107.121Z" fill="#D1D3D4"/>
<path d="M147.043 113.303H145.51V114.835H147.043V113.303Z" fill="#D1D3D4"/>
<path d="M147.043 119.484H145.51V121.017H147.043V119.484Z" fill="#D1D3D4"/>
<path d="M103.286 37.7664H99.1244C98.9898 37.7664 98.8608 37.713 98.7656 37.6178C98.6704 37.5226 98.6169 37.3935 98.6169 37.2589C98.6169 37.1243 98.6704 36.9952 98.7656 36.9001C98.8608 36.8049 98.9898 36.7514 99.1244 36.7514H103.276C103.41 36.7514 103.539 36.8049 103.635 36.9001C103.73 36.9952 103.783 37.1243 103.783 37.2589C103.783 37.3918 103.731 37.5193 103.638 37.6142C103.545 37.7091 103.419 37.7638 103.286 37.7664Z" fill="white"/>
<path d="M113.771 37.7664H105.478C105.344 37.7664 105.215 37.713 105.119 37.6178C105.024 37.5226 104.971 37.3935 104.971 37.2589C104.971 37.1243 105.024 36.9952 105.119 36.9001C105.215 36.8049 105.344 36.7514 105.478 36.7514H113.771C113.905 36.7514 114.035 36.8049 114.13 36.9001C114.225 36.9952 114.278 37.1243 114.278 37.2589C114.278 37.3935 114.225 37.5226 114.13 37.6178C114.035 37.713 113.905 37.7664 113.771 37.7664Z" fill="black"/>
<path d="M116.268 41.867H107.975C107.841 41.867 107.712 41.8136 107.616 41.7184C107.521 41.6232 107.468 41.4941 107.468 41.3595C107.468 41.2249 107.521 41.0958 107.616 41.0007C107.712 40.9055 107.841 40.852 107.975 40.852H116.268C116.402 40.852 116.532 40.9055 116.627 41.0007C116.722 41.0958 116.775 41.2249 116.775 41.3595C116.773 41.4933 116.718 41.6209 116.624 41.7155C116.529 41.8101 116.402 41.8644 116.268 41.867Z" fill="black"/>
<path d="M104.26 41.867H100.139C100.005 41.867 99.8758 41.8136 99.7806 41.7184C99.6854 41.6232 99.632 41.4941 99.632 41.3595C99.632 41.2249 99.6854 41.0958 99.7806 41.0007C99.8758 40.9055 100.005 40.852 100.139 40.852H104.291C104.425 40.852 104.554 40.9055 104.65 41.0007C104.745 41.0958 104.798 41.2249 104.798 41.3595C104.798 41.4288 104.784 41.4974 104.757 41.561C104.73 41.6247 104.689 41.682 104.639 41.7296C104.589 41.7771 104.529 41.8139 104.464 41.8375C104.399 41.8611 104.33 41.8712 104.26 41.867Z" fill="white"/>
<path d="M104.423 45.9575H101.083C100.949 45.9575 100.82 45.904 100.725 45.8088C100.629 45.7136 100.576 45.5846 100.576 45.45C100.576 45.3154 100.629 45.1863 100.725 45.0911C100.82 44.9959 100.949 44.9425 101.083 44.9425H104.423C104.557 44.9425 104.686 44.9959 104.782 45.0911C104.877 45.1863 104.93 45.3154 104.93 45.45C104.93 45.5846 104.877 45.7136 104.782 45.8088C104.686 45.904 104.557 45.9575 104.423 45.9575Z" fill="white"/>
<path d="M117.75 45.9575H107.366C107.232 45.9549 107.105 45.9006 107.01 45.8059C106.916 45.7113 106.861 45.5837 106.859 45.45C106.859 45.3154 106.912 45.1863 107.007 45.0911C107.103 44.9959 107.232 44.9425 107.366 44.9425H117.75C117.884 44.9425 118.013 44.9959 118.109 45.0911C118.204 45.1863 118.257 45.3154 118.257 45.45C118.257 45.5846 118.204 45.7136 118.109 45.8088C118.013 45.904 117.884 45.9575 117.75 45.9575Z" fill="black"/>
<path d="M108.361 50.0479H102.941C102.806 50.0479 102.677 49.9944 102.582 49.8993C102.487 49.8041 102.433 49.675 102.433 49.5404C102.433 49.4058 102.487 49.2767 102.582 49.1816C102.677 49.0864 102.806 49.0329 102.941 49.0329H108.361C108.496 49.0329 108.625 49.0864 108.72 49.1816C108.815 49.2767 108.868 49.4058 108.868 49.5404C108.868 49.675 108.815 49.8041 108.72 49.8993C108.625 49.9944 108.496 50.0479 108.361 50.0479Z" fill="white"/>
<path d="M126.184 50.0479H110.107C109.972 50.0479 109.843 49.9944 109.748 49.8993C109.653 49.8041 109.599 49.675 109.599 49.5404C109.599 49.4058 109.653 49.2767 109.748 49.1816C109.843 49.0864 109.972 49.0329 110.107 49.0329H126.184C126.319 49.0329 126.448 49.0864 126.543 49.1816C126.638 49.2767 126.692 49.4058 126.692 49.5404C126.692 49.675 126.638 49.8041 126.543 49.8993C126.448 49.9944 126.319 50.0479 126.184 50.0479Z" fill="black"/>
<path d="M106.93 54.1384H101.51C101.375 54.1384 101.246 54.0849 101.151 53.9897C101.056 53.8945 101.002 53.7654 101.002 53.6309C101.002 53.4963 101.056 53.3672 101.151 53.272C101.246 53.1768 101.375 53.1234 101.51 53.1234H106.93C107.064 53.1234 107.193 53.1768 107.289 53.272C107.384 53.3672 107.437 53.4963 107.437 53.6309C107.437 53.7654 107.384 53.8945 107.289 53.9897C107.193 54.0849 107.064 54.1384 106.93 54.1384Z" fill="white"/>
<path d="M117.719 54.1384H109C108.866 54.1384 108.737 54.0849 108.642 53.9897C108.546 53.8945 108.493 53.7654 108.493 53.6309C108.493 53.4963 108.546 53.3672 108.642 53.272C108.737 53.1768 108.866 53.1234 109 53.1234H117.719C117.854 53.1234 117.983 53.1768 118.078 53.272C118.173 53.3672 118.227 53.4963 118.227 53.6309C118.227 53.7654 118.173 53.8945 118.078 53.9897C117.983 54.0849 117.854 54.1384 117.719 54.1384Z" fill="black"/>
<path d="M127.372 54.1384H121.048C120.914 54.1384 120.785 54.0849 120.69 53.9897C120.594 53.8945 120.541 53.7654 120.541 53.6309C120.541 53.4963 120.594 53.3672 120.69 53.272C120.785 53.1768 120.914 53.1234 121.048 53.1234H127.372C127.506 53.1234 127.636 53.1768 127.731 53.272C127.826 53.3672 127.879 53.4963 127.879 53.6309C127.879 53.7654 127.826 53.8945 127.731 53.9897C127.636 54.0849 127.506 54.1384 127.372 54.1384V54.1384Z" fill="black"/>
<path d="M103.377 58.2288H101.51C101.375 58.2288 101.246 58.1753 101.151 58.0802C101.056 57.985 101.002 57.8559 101.002 57.7213C101.002 57.5867 101.056 57.4576 101.151 57.3624C101.246 57.2673 101.375 57.2138 101.51 57.2138H103.377C103.511 57.2164 103.639 57.2707 103.733 57.3653C103.828 57.4599 103.882 57.5875 103.885 57.7213C103.885 57.8559 103.831 57.985 103.736 58.0802C103.641 58.1753 103.512 58.2288 103.377 58.2288Z" fill="white"/>
<path d="M117.719 58.2288H106.554C106.42 58.2288 106.291 58.1753 106.195 58.0802C106.1 57.985 106.047 57.8559 106.047 57.7213C106.047 57.5867 106.1 57.4576 106.195 57.3624C106.291 57.2673 106.42 57.2138 106.554 57.2138H117.719C117.854 57.2138 117.983 57.2673 118.078 57.3624C118.173 57.4576 118.227 57.5867 118.227 57.7213C118.227 57.8559 118.173 57.985 118.078 58.0802C117.983 58.1753 117.854 58.2288 117.719 58.2288Z" fill="black"/>
<path d="M122.114 58.2288H119.008C118.874 58.2288 118.745 58.1753 118.649 58.0802C118.554 57.985 118.501 57.8559 118.501 57.7213C118.501 57.5867 118.554 57.4576 118.649 57.3624C118.745 57.2673 118.874 57.2138 119.008 57.2138H122.114C122.249 57.2138 122.378 57.2673 122.473 57.3624C122.568 57.4576 122.622 57.5867 122.622 57.7213C122.622 57.8559 122.568 57.985 122.473 58.0802C122.378 58.1753 122.249 58.2288 122.114 58.2288Z" fill="black"/>
<path d="M104.443 62.37H101.51C101.375 62.37 101.246 62.3165 101.151 62.2214C101.056 62.1262 101.002 61.9971 101.002 61.8625C101.002 61.7279 101.056 61.5988 101.151 61.5037C101.246 61.4085 101.375 61.355 101.51 61.355H104.443C104.577 61.3576 104.704 61.4119 104.799 61.5065C104.894 61.6011 104.948 61.7287 104.951 61.8625C104.951 61.9971 104.897 62.1262 104.802 62.2214C104.707 62.3165 104.578 62.37 104.443 62.37Z" fill="white"/>
<path d="M120.439 62.37H107.244C107.11 62.37 106.981 62.3165 106.886 62.2214C106.79 62.1262 106.737 61.9971 106.737 61.8625C106.737 61.7279 106.79 61.5988 106.886 61.5037C106.981 61.4085 107.11 61.355 107.244 61.355H120.439C120.574 61.355 120.703 61.4085 120.798 61.5037C120.893 61.5988 120.947 61.7279 120.947 61.8625C120.947 61.9971 120.893 62.1262 120.798 62.2214C120.703 62.3165 120.574 62.37 120.439 62.37Z" fill="black"/>
<path d="M127.179 62.37H121.759C121.624 62.37 121.495 62.3165 121.4 62.2214C121.305 62.1262 121.251 61.9971 121.251 61.8625C121.254 61.7287 121.308 61.6011 121.403 61.5065C121.498 61.4119 121.625 61.3576 121.759 61.355H127.179C127.314 61.355 127.443 61.4085 127.538 61.5037C127.633 61.5988 127.687 61.7279 127.687 61.8625C127.687 61.9971 127.633 62.1262 127.538 62.2214C127.443 62.3165 127.314 62.37 127.179 62.37Z" fill="black"/>
<path d="M103.113 66.43H100.241C100.106 66.43 99.9773 66.3765 99.8821 66.2814C99.7869 66.1862 99.7335 66.0571 99.7335 65.9225C99.7335 65.7879 99.7869 65.6588 99.8821 65.5637C99.9773 65.4685 100.106 65.415 100.241 65.415H103.113C103.248 65.415 103.377 65.4685 103.472 65.5637C103.567 65.6588 103.621 65.7879 103.621 65.9225C103.618 66.0563 103.564 66.1839 103.469 66.2785C103.375 66.3731 103.247 66.4274 103.113 66.43Z" fill="white"/>
<path d="M119.008 66.43H106.453C106.319 66.4274 106.191 66.3731 106.097 66.2785C106.002 66.1839 105.948 66.0563 105.945 65.9225C105.945 65.7879 105.999 65.6588 106.094 65.5637C106.189 65.4685 106.318 65.415 106.453 65.415H119.008C119.143 65.415 119.272 65.4685 119.367 65.5637C119.462 65.6588 119.516 65.7879 119.516 65.9225C119.513 66.0563 119.459 66.1839 119.364 66.2785C119.27 66.3731 119.142 66.4274 119.008 66.43Z" fill="black"/>
<path d="M105.651 70.49H100.241C100.106 70.49 99.9773 70.4365 99.8821 70.3414C99.7869 70.2462 99.7335 70.1171 99.7335 69.9825C99.7335 69.8479 99.7869 69.7188 99.8821 69.6236C99.9773 69.5285 100.106 69.475 100.241 69.475H105.651C105.785 69.475 105.915 69.5285 106.01 69.6236C106.105 69.7188 106.158 69.8479 106.158 69.9825C106.158 70.1171 106.105 70.2462 106.01 70.3414C105.915 70.4365 105.785 70.49 105.651 70.49Z" fill="white"/>
<path d="M111.842 74.6008H101.043C100.908 74.6008 100.779 74.5473 100.684 74.4521C100.589 74.357 100.535 74.2279 100.535 74.0933C100.535 73.9587 100.589 73.8296 100.684 73.7344C100.779 73.6392 100.908 73.5858 101.043 73.5858H111.842C111.977 73.5858 112.106 73.6392 112.201 73.7344C112.296 73.8296 112.35 73.9587 112.35 74.0933C112.35 74.2279 112.296 74.357 112.201 74.4521C112.106 74.5473 111.977 74.6008 111.842 74.6008V74.6008Z" fill="white"/>
<path d="M122.114 74.6008H114.603C114.469 74.6008 114.34 74.5473 114.244 74.4521C114.149 74.357 114.096 74.2279 114.096 74.0933C114.096 73.9587 114.149 73.8296 114.244 73.7344C114.34 73.6392 114.469 73.5858 114.603 73.5858H122.114C122.249 73.5858 122.378 73.6392 122.473 73.7344C122.568 73.8296 122.622 73.9587 122.622 74.0933C122.622 74.2279 122.568 74.357 122.473 74.4521C122.378 74.5473 122.249 74.6008 122.114 74.6008Z" fill="black"/>
<path d="M127.616 74.6008H123.19C123.056 74.6008 122.926 74.5473 122.831 74.4521C122.736 74.357 122.683 74.2279 122.683 74.0933C122.683 73.9587 122.736 73.8296 122.831 73.7344C122.926 73.6392 123.056 73.5858 123.19 73.5858H127.616C127.75 73.5858 127.879 73.6392 127.974 73.7344C128.07 73.8296 128.123 73.9587 128.123 74.0933C128.123 74.2279 128.07 74.357 127.974 74.4521C127.879 74.5473 127.75 74.6008 127.616 74.6008Z" fill="black"/>
<path d="M117.262 78.6912H101.51C101.375 78.6912 101.246 78.6377 101.151 78.5426C101.056 78.4474 101.002 78.3183 101.002 78.1837C101.002 78.0491 101.056 77.92 101.151 77.8249C101.246 77.7297 101.375 77.6762 101.51 77.6762H117.262C117.397 77.6762 117.526 77.7297 117.621 77.8249C117.717 77.92 117.77 78.0491 117.77 78.1837C117.77 78.3183 117.717 78.4474 117.621 78.5426C117.526 78.6377 117.397 78.6912 117.262 78.6912Z" fill="white"/>
<path d="M126.387 78.6912H119.282C119.148 78.6912 119.019 78.6377 118.923 78.5426C118.828 78.4474 118.775 78.3183 118.775 78.1837C118.775 78.0491 118.828 77.92 118.923 77.8249C119.019 77.7297 119.148 77.6762 119.282 77.6762H126.387C126.522 77.6762 126.651 77.7297 126.746 77.8249C126.841 77.92 126.895 78.0491 126.895 78.1837C126.895 78.3183 126.841 78.4474 126.746 78.5426C126.651 78.6377 126.522 78.6912 126.387 78.6912Z" fill="black"/>
<path d="M118.298 37.7969C117.506 37.7969 116.725 37.7969 115.943 37.7969C115.876 37.7969 115.81 37.7834 115.748 37.7572C115.686 37.7309 115.63 37.6924 115.584 37.6441C115.537 37.5957 115.501 37.5385 115.478 37.4758C115.454 37.4131 115.443 37.3462 115.446 37.2792C115.458 37.1479 115.517 37.0253 115.612 36.934C115.707 36.8426 115.832 36.7886 115.963 36.7819C117.283 36.7819 118.602 36.7819 119.922 36.7819H121.048C121.183 36.7819 121.312 36.8353 121.407 36.9305C121.502 37.0257 121.556 37.1548 121.556 37.2894C121.556 37.424 121.502 37.553 121.407 37.6482C121.312 37.7434 121.183 37.7969 121.048 37.7969H118.298Z" fill="black"/>
<path d="M125.931 66.43H120.439C120.306 66.4274 120.178 66.3731 120.083 66.2785C119.989 66.1839 119.935 66.0563 119.932 65.9225C119.932 65.7879 119.985 65.6588 120.081 65.5637C120.176 65.4685 120.305 65.415 120.439 65.415H125.92C126.055 65.415 126.184 65.4685 126.279 65.5637C126.374 65.6588 126.428 65.7879 126.428 65.9225C126.428 66.0554 126.376 66.1829 126.283 66.2778C126.19 66.3727 126.063 66.4274 125.931 66.43Z" fill="black"/>
<path d="M113.334 70.49H109.274C109.141 70.4874 109.013 70.4331 108.918 70.3385C108.824 70.2439 108.77 70.1163 108.767 69.9825C108.767 69.8479 108.82 69.7188 108.916 69.6236C109.011 69.5285 109.14 69.475 109.274 69.475H113.334C113.469 69.475 113.598 69.5285 113.693 69.6236C113.788 69.7188 113.842 69.8479 113.842 69.9825C113.842 70.1171 113.788 70.2462 113.693 70.3414C113.598 70.4365 113.469 70.49 113.334 70.49Z" fill="black"/>
<path d="M124.499 70.49H114.918C114.784 70.4874 114.656 70.4331 114.562 70.3385C114.467 70.2439 114.413 70.1163 114.41 69.9825C114.41 69.8479 114.464 69.7188 114.559 69.6236C114.654 69.5285 114.783 69.475 114.918 69.475H124.499C124.634 69.475 124.763 69.5285 124.858 69.6236C124.953 69.7188 125.007 69.8479 125.007 69.9825C125.007 70.1171 124.953 70.2462 124.858 70.3414C124.763 70.4365 124.634 70.49 124.499 70.49Z" fill="white"/>
<path d="M103.398 18.1972H100.464C100.33 18.1972 100.201 18.1437 100.105 18.0486C100.01 17.9534 99.9568 17.8243 99.9568 17.6897C99.9568 17.5551 100.01 17.426 100.105 17.3308C100.201 17.2357 100.33 17.1822 100.464 17.1822H103.398C103.531 17.1848 103.659 17.2391 103.754 17.3337C103.848 17.4283 103.903 17.5559 103.905 17.6897C103.905 17.8243 103.852 17.9534 103.756 18.0486C103.661 18.1437 103.532 18.1972 103.398 18.1972Z" fill="white"/>
<path d="M119.424 18.1972H106.148C106.014 18.1972 105.885 18.1437 105.789 18.0486C105.694 17.9534 105.641 17.8243 105.641 17.6897C105.643 17.5559 105.698 17.4283 105.792 17.3337C105.887 17.2391 106.014 17.1848 106.148 17.1822H119.424C119.559 17.1822 119.688 17.2357 119.783 17.3308C119.878 17.426 119.932 17.5551 119.932 17.6897C119.932 17.8243 119.878 17.9534 119.783 18.0486C119.688 18.1437 119.559 18.1972 119.424 18.1972Z" fill="black"/>
<path d="M126.134 18.1972H120.713C120.579 18.1972 120.45 18.1437 120.355 18.0486C120.259 17.9534 120.206 17.8243 120.206 17.6897C120.209 17.5559 120.263 17.4283 120.358 17.3337C120.452 17.2391 120.58 17.1848 120.713 17.1822H126.134C126.267 17.1848 126.395 17.2391 126.49 17.3337C126.584 17.4283 126.638 17.5559 126.641 17.6897C126.641 17.8243 126.588 17.9534 126.492 18.0486C126.397 18.1437 126.268 18.1972 126.134 18.1972Z" fill="black"/>
<path d="M102.068 22.2978H99.1955C99.0609 22.2978 98.9318 22.2443 98.8366 22.1492C98.7414 22.054 98.688 21.9249 98.688 21.7903C98.688 21.6557 98.7414 21.5266 98.8366 21.4314C98.9318 21.3363 99.0609 21.2828 99.1955 21.2828H102.068C102.203 21.2828 102.332 21.3363 102.427 21.4314C102.522 21.5266 102.575 21.6557 102.575 21.7903C102.573 21.9241 102.519 22.0517 102.424 22.1463C102.329 22.2409 102.202 22.2952 102.068 22.2978Z" fill="white"/>
<path d="M117.953 22.2978H105.407C105.274 22.2952 105.146 22.2409 105.051 22.1463C104.957 22.0517 104.902 21.9241 104.9 21.7903C104.9 21.6557 104.953 21.5266 105.048 21.4314C105.144 21.3363 105.273 21.2828 105.407 21.2828H117.953C118.087 21.2828 118.216 21.3363 118.312 21.4314C118.407 21.5266 118.46 21.6557 118.46 21.7903C118.46 21.9249 118.407 22.054 118.312 22.1492C118.216 22.2443 118.087 22.2978 117.953 22.2978Z" fill="black"/>
<path d="M104.605 26.3883H99.1955C99.0609 26.3883 98.9318 26.3348 98.8366 26.2396C98.7414 26.1444 98.688 26.0154 98.688 25.8808C98.688 25.7462 98.7414 25.6171 98.8366 25.5219C98.9318 25.4267 99.0609 25.3733 99.1955 25.3733H104.605C104.74 25.3733 104.869 25.4267 104.964 25.5219C105.059 25.6171 105.113 25.7462 105.113 25.8808C105.113 26.0154 105.059 26.1444 104.964 26.2396C104.869 26.3348 104.74 26.3883 104.605 26.3883Z" fill="white"/>
<path d="M108.087 30.4787H99.7944C99.6598 30.4787 99.5307 30.4252 99.4355 30.3301C99.3403 30.2349 99.2869 30.1058 99.2869 29.9712C99.2869 29.8366 99.3403 29.7075 99.4355 29.6124C99.5307 29.5172 99.6598 29.4637 99.7944 29.4637H108.087C108.222 29.4637 108.351 29.5172 108.446 29.6124C108.541 29.7075 108.594 29.8366 108.594 29.9712C108.594 30.1058 108.541 30.2349 108.446 30.3301C108.351 30.4252 108.222 30.4787 108.087 30.4787Z" fill="white"/>
<path d="M115.973 30.4787H110.208C110.074 30.4787 109.945 30.4252 109.849 30.3301C109.754 30.2349 109.701 30.1058 109.701 29.9712C109.701 29.8366 109.754 29.7075 109.849 29.6124C109.945 29.5172 110.074 29.4637 110.208 29.4637H115.973C116.108 29.4637 116.237 29.5172 116.332 29.6124C116.427 29.7075 116.481 29.8366 116.481 29.9712C116.481 30.1058 116.427 30.2349 116.332 30.3301C116.237 30.4252 116.108 30.4787 115.973 30.4787Z" fill="black"/>
<path d="M120.876 30.4787H116.816C116.681 30.4787 116.552 30.4252 116.457 30.3301C116.362 30.2349 116.308 30.1058 116.308 29.9712C116.308 29.8366 116.362 29.7075 116.457 29.6124C116.552 29.5172 116.681 29.4637 116.816 29.4637H120.876C121.011 29.4637 121.14 29.5172 121.235 29.6124C121.33 29.7075 121.383 29.8366 121.383 29.9712C121.383 30.1058 121.33 30.2349 121.235 30.3301C121.14 30.4252 121.011 30.4787 120.876 30.4787Z" fill="black"/>
<path d="M112.238 34.5692H100.139C100.005 34.5692 99.8758 34.5157 99.7806 34.4205C99.6854 34.3253 99.632 34.1963 99.632 34.0617C99.632 33.9271 99.6854 33.798 99.7806 33.7028C99.8758 33.6076 100.005 33.5542 100.139 33.5542H112.228C112.363 33.5542 112.492 33.6076 112.587 33.7028C112.682 33.798 112.736 33.9271 112.736 34.0617C112.736 34.1963 112.682 34.3253 112.587 34.4205C112.492 34.5157 112.363 34.5692 112.228 34.5692H112.238Z" fill="white"/>
<path d="M119.252 34.5692H113.812C113.677 34.5692 113.548 34.5157 113.453 34.4205C113.357 34.3253 113.304 34.1963 113.304 34.0617C113.304 33.9271 113.357 33.798 113.453 33.7028C113.548 33.6076 113.677 33.5542 113.812 33.5542H119.252C119.387 33.5542 119.516 33.6076 119.611 33.7028C119.706 33.798 119.759 33.9271 119.759 34.0617C119.759 34.1963 119.706 34.3253 119.611 34.4205C119.516 34.5157 119.387 34.5692 119.252 34.5692Z" fill="black"/>
<path d="M124.885 22.2978H119.424C119.291 22.2952 119.163 22.2409 119.068 22.1463C118.974 22.0517 118.92 21.9241 118.917 21.7903C118.917 21.6557 118.97 21.5266 119.066 21.4314C119.161 21.3363 119.29 21.2828 119.424 21.2828H124.905C125.04 21.2828 125.169 21.3363 125.264 21.4314C125.359 21.5266 125.413 21.6557 125.413 21.7903C125.413 21.8587 125.399 21.9264 125.372 21.9893C125.346 22.0523 125.306 22.1091 125.257 22.1565C125.208 22.2039 125.15 22.2409 125.086 22.2652C125.022 22.2894 124.953 22.3005 124.885 22.2978Z" fill="black"/>
<path d="M112.319 26.3883H108.259C108.126 26.3857 107.998 26.3314 107.903 26.2367C107.809 26.1421 107.755 26.0145 107.752 25.8808C107.752 25.7462 107.805 25.6171 107.901 25.5219C107.996 25.4267 108.125 25.3733 108.259 25.3733H112.319C112.454 25.3733 112.583 25.4267 112.678 25.5219C112.773 25.6171 112.827 25.7462 112.827 25.8808C112.827 26.0154 112.773 26.1444 112.678 26.2396C112.583 26.3348 112.454 26.3883 112.319 26.3883Z" fill="black"/>
<path d="M123.424 26.3883H113.842C113.708 26.3857 113.581 26.3314 113.486 26.2367C113.391 26.1421 113.337 26.0145 113.334 25.8808C113.334 25.7462 113.388 25.6171 113.483 25.5219C113.578 25.4267 113.707 25.3733 113.842 25.3733H123.424C123.558 25.3733 123.687 25.4267 123.782 25.5219C123.878 25.6171 123.931 25.7462 123.931 25.8808C123.931 26.0154 123.878 26.1444 123.782 26.2396C123.687 26.3348 123.558 26.3883 123.424 26.3883Z" fill="white"/>
<path d="M92.4051 17.1822H91.6439V18.1871H92.4051V17.1822Z" fill="black"/>
<path d="M92.4051 21.2118H91.6439V22.2166H92.4051V21.2118Z" fill="black"/>
<path d="M92.4051 25.2413H91.6439V26.2462H92.4051V25.2413Z" fill="black"/>
<path d="M92.4051 29.2607H91.6439V30.2656H92.4051V29.2607Z" fill="black"/>
<path d="M92.4051 33.2903H91.6439V34.2951H92.4051V33.2903Z" fill="black"/>
<path d="M92.4051 37.3097H91.6439V38.3145H92.4051V37.3097Z" fill="black"/>
<path d="M92.4051 41.3392H91.6439V42.3441H92.4051V41.3392Z" fill="black"/>
<path d="M92.4051 45.3586H91.6439V46.3635H92.4051V45.3586Z" fill="black"/>
<path d="M92.4051 49.3882H91.6439V50.393H92.4051V49.3882Z" fill="black"/>
<path d="M92.4051 53.4177H91.6439V54.4226H92.4051V53.4177Z" fill="black"/>
<path d="M92.4051 57.4371H91.6439V58.442H92.4051V57.4371Z" fill="black"/>
<path d="M92.4051 61.4667H91.6439V62.4715H92.4051V61.4667Z" fill="black"/>
<path d="M92.4051 65.4861H91.6439V66.4909H92.4051V65.4861Z" fill="black"/>
<path d="M92.4051 69.5156H91.6439V70.5205H92.4051V69.5156Z" fill="black"/>
<path d="M92.4051 73.5452H91.6439V74.55H92.4051V73.5452Z" fill="black"/>
<path d="M92.4051 77.5646H91.6439V78.5694H92.4051V77.5646Z" fill="black"/>
<path d="M103.885 102.838H99.1244C98.9898 102.838 98.8608 102.785 98.7656 102.689C98.6704 102.594 98.6169 102.465 98.6169 102.331C98.6169 102.196 98.6704 102.067 98.7656 101.972C98.8608 101.877 98.9898 101.823 99.1244 101.823H103.875C104.009 101.823 104.138 101.877 104.234 101.972C104.329 102.067 104.382 102.196 104.382 102.331C104.382 102.463 104.33 102.591 104.237 102.686C104.144 102.781 104.018 102.835 103.885 102.838V102.838Z" fill="white"/>
<path d="M115.882 102.838H106.392C106.257 102.838 106.128 102.785 106.033 102.689C105.938 102.594 105.884 102.465 105.884 102.331C105.884 102.196 105.938 102.067 106.033 101.972C106.128 101.877 106.257 101.823 106.392 101.823H115.882C116.017 101.823 116.146 101.877 116.241 101.972C116.336 102.067 116.39 102.196 116.39 102.331C116.39 102.465 116.336 102.594 116.241 102.689C116.146 102.785 116.017 102.838 115.882 102.838Z" fill="black"/>
<path d="M118.734 106.929H109.274C109.14 106.929 109.011 106.875 108.916 106.78C108.82 106.685 108.767 106.556 108.767 106.421C108.767 106.286 108.82 106.157 108.916 106.062C109.011 105.967 109.14 105.914 109.274 105.914H118.765C118.899 105.914 119.028 105.967 119.124 106.062C119.219 106.157 119.272 106.286 119.272 106.421C119.272 106.556 119.219 106.685 119.124 106.78C119.028 106.875 118.899 106.929 118.765 106.929H118.734Z" fill="black"/>
<path d="M105.001 106.929H100.251C100.116 106.929 99.9874 106.875 99.8922 106.78C99.7971 106.685 99.7436 106.556 99.7436 106.421C99.7436 106.286 99.7971 106.157 99.8922 106.062C99.9874 105.967 100.116 105.914 100.251 105.914H105.001C105.136 105.914 105.265 105.967 105.36 106.062C105.455 106.157 105.509 106.286 105.509 106.421C105.509 106.556 105.455 106.685 105.36 106.78C105.265 106.875 105.136 106.929 105.001 106.929Z" fill="white"/>
<path d="M105.214 111.019H101.398C101.263 111.019 101.134 110.965 101.039 110.87C100.944 110.775 100.891 110.646 100.891 110.511C100.891 110.377 100.944 110.248 101.039 110.153C101.134 110.057 101.263 110.004 101.398 110.004H105.214C105.349 110.004 105.478 110.057 105.573 110.153C105.668 110.248 105.722 110.377 105.722 110.511C105.722 110.646 105.668 110.775 105.573 110.87C105.478 110.965 105.349 111.019 105.214 111.019Z" fill="white"/>
<path d="M120.439 111.019H108.554C108.419 111.019 108.29 110.965 108.195 110.87C108.1 110.775 108.046 110.646 108.046 110.511C108.046 110.377 108.1 110.248 108.195 110.153C108.29 110.057 108.419 110.004 108.554 110.004H120.439C120.574 110.004 120.703 110.057 120.798 110.153C120.893 110.248 120.947 110.377 120.947 110.511C120.947 110.646 120.893 110.775 120.798 110.87C120.703 110.965 120.574 111.019 120.439 111.019Z" fill="black"/>
<path d="M107.244 115.15H102.494C102.36 115.15 102.231 115.097 102.135 115.001C102.04 114.906 101.987 114.777 101.987 114.643C101.987 114.508 102.04 114.379 102.135 114.284C102.231 114.188 102.36 114.135 102.494 114.135H107.244C107.379 114.135 107.508 114.188 107.603 114.284C107.698 114.379 107.752 114.508 107.752 114.643C107.752 114.777 107.698 114.906 107.603 115.001C107.508 115.097 107.379 115.15 107.244 115.15Z" fill="white"/>
<path d="M122.896 115.15H108.767C108.632 115.15 108.503 115.097 108.408 115.001C108.313 114.906 108.259 114.777 108.259 114.643C108.262 114.509 108.316 114.381 108.411 114.287C108.506 114.192 108.633 114.138 108.767 114.135H122.896C123.03 114.138 123.157 114.192 123.252 114.287C123.346 114.381 123.401 114.509 123.403 114.643C123.403 114.777 123.35 114.906 123.255 115.001C123.159 115.097 123.03 115.15 122.896 115.15Z" fill="black"/>
<path d="M105.976 119.21H101.215C101.081 119.21 100.952 119.157 100.857 119.061C100.761 118.966 100.708 118.837 100.708 118.703C100.71 118.569 100.765 118.441 100.859 118.347C100.954 118.252 101.082 118.198 101.215 118.195H105.976C106.11 118.195 106.239 118.248 106.335 118.344C106.43 118.439 106.483 118.568 106.483 118.703C106.483 118.837 106.43 118.966 106.335 119.061C106.239 119.157 106.11 119.21 105.976 119.21Z" fill="white"/>
<path d="M115.456 119.21H107.793C107.658 119.21 107.529 119.157 107.434 119.061C107.339 118.966 107.285 118.837 107.285 118.703C107.288 118.569 107.342 118.441 107.437 118.347C107.531 118.252 107.659 118.198 107.793 118.195H115.456C115.59 118.195 115.719 118.248 115.815 118.344C115.91 118.439 115.963 118.568 115.963 118.703C115.963 118.837 115.91 118.966 115.815 119.061C115.719 119.157 115.59 119.21 115.456 119.21Z" fill="black"/>
<path d="M123.931 119.21H118.409C118.275 119.21 118.146 119.157 118.051 119.061C117.955 118.966 117.902 118.837 117.902 118.703C117.905 118.569 117.959 118.441 118.053 118.347C118.148 118.252 118.276 118.198 118.409 118.195H123.961C124.096 118.195 124.225 118.248 124.32 118.344C124.416 118.439 124.469 118.568 124.469 118.703C124.469 118.772 124.455 118.84 124.428 118.904C124.4 118.968 124.36 119.025 124.31 119.073C124.259 119.12 124.2 119.157 124.135 119.18C124.069 119.204 124 119.214 123.931 119.21V119.21Z" fill="black"/>
<path d="M121.048 102.858C120.155 102.858 119.262 102.858 118.369 102.858C118.233 102.853 118.105 102.795 118.012 102.696C117.919 102.597 117.869 102.466 117.872 102.331C117.871 102.264 117.885 102.198 117.911 102.137C117.938 102.076 117.976 102.021 118.025 101.975C118.073 101.929 118.131 101.894 118.193 101.871C118.256 101.849 118.323 101.839 118.389 101.843C119.891 101.843 121.434 101.843 122.916 101.843H124.215C124.349 101.846 124.477 101.9 124.571 101.995C124.666 102.09 124.72 102.217 124.723 102.351C124.723 102.485 124.669 102.615 124.574 102.71C124.479 102.805 124.35 102.858 124.215 102.858H121.048Z" fill="black"/>
<path d="M102.87 83.2689H100.302C100.167 83.2689 100.038 83.2154 99.943 83.1202C99.8478 83.0251 99.7944 82.896 99.7944 82.7614C99.7944 82.6268 99.8478 82.4977 99.943 82.4025C100.038 82.3073 100.167 82.2539 100.302 82.2539H102.87C103.004 82.2539 103.133 82.3073 103.229 82.4025C103.324 82.4977 103.377 82.6268 103.377 82.7614C103.377 82.896 103.324 83.0251 103.229 83.1202C103.133 83.2154 103.004 83.2689 102.87 83.2689Z" fill="white"/>
<path d="M116.938 83.2689H105.296C105.162 83.2663 105.034 83.212 104.94 83.1173C104.845 83.0227 104.791 82.8951 104.788 82.7614C104.788 82.6268 104.842 82.4977 104.937 82.4025C105.032 82.3073 105.161 82.2539 105.296 82.2539H116.938C117.072 82.2539 117.201 82.3073 117.297 82.4025C117.392 82.4977 117.445 82.6268 117.445 82.7614C117.445 82.896 117.392 83.0251 117.297 83.1202C117.201 83.2154 117.072 83.2689 116.938 83.2689Z" fill="black"/>
<path d="M122.845 83.2689H118.085C117.951 83.2663 117.823 83.212 117.729 83.1173C117.634 83.0227 117.58 82.8951 117.577 82.7614C117.577 82.6268 117.631 82.4977 117.726 82.4025C117.821 82.3073 117.95 82.2539 118.085 82.2539H122.845C122.98 82.2539 123.109 82.3073 123.204 82.4025C123.299 82.4977 123.353 82.6268 123.353 82.7614C123.35 82.8951 123.296 83.0227 123.201 83.1173C123.106 83.212 122.979 83.2663 122.845 83.2689V83.2689Z" fill="black"/>
<path d="M101.703 87.3593H99.1854C99.0508 87.3593 98.9217 87.3059 98.8265 87.2107C98.7313 87.1155 98.6779 86.9864 98.6779 86.8518C98.6779 86.7172 98.7313 86.5881 98.8265 86.493C98.9217 86.3978 99.0508 86.3443 99.1854 86.3443H101.703C101.837 86.3443 101.966 86.3978 102.061 86.493C102.157 86.5881 102.21 86.7172 102.21 86.8518C102.21 86.9864 102.157 87.1155 102.061 87.2107C101.966 87.3059 101.837 87.3593 101.703 87.3593Z" fill="white"/>
<path d="M115.659 87.3593H104.646C104.511 87.3593 104.382 87.3059 104.287 87.2107C104.192 87.1155 104.139 86.9864 104.139 86.8518C104.139 86.7172 104.192 86.5881 104.287 86.493C104.382 86.3978 104.511 86.3443 104.646 86.3443H115.659C115.793 86.3443 115.922 86.3978 116.018 86.493C116.113 86.5881 116.166 86.7172 116.166 86.8518C116.166 86.9864 116.113 87.1155 116.018 87.2107C115.922 87.3059 115.793 87.3593 115.659 87.3593Z" fill="black"/>
<path d="M103.936 91.4498H99.1854C99.0508 91.4498 98.9217 91.3963 98.8265 91.3011C98.7313 91.2059 98.6779 91.0769 98.6779 90.9423C98.6779 90.8077 98.7313 90.6786 98.8265 90.5834C98.9217 90.4882 99.0508 90.4348 99.1854 90.4348H103.936C104.07 90.4348 104.199 90.4882 104.294 90.5834C104.39 90.6786 104.443 90.8077 104.443 90.9423C104.443 91.0769 104.39 91.2059 104.294 91.3011C104.199 91.3963 104.07 91.4498 103.936 91.4498Z" fill="white"/>
<path d="M109.376 95.5402H99.8857C99.7511 95.5402 99.622 95.4867 99.5269 95.3916C99.4317 95.2964 99.3782 95.1673 99.3782 95.0327C99.3808 94.8989 99.4351 94.7714 99.5297 94.6767C99.6243 94.5821 99.7519 94.5278 99.8857 94.5252H109.376C109.511 94.5252 109.64 94.5787 109.735 94.6739C109.83 94.769 109.883 94.8981 109.883 95.0327C109.883 95.1673 109.83 95.2964 109.735 95.3916C109.64 95.4867 109.511 95.5402 109.376 95.5402Z" fill="white"/>
<path d="M118.409 95.5402H111.812C111.677 95.5402 111.548 95.4867 111.453 95.3916C111.358 95.2964 111.304 95.1673 111.304 95.0327C111.304 94.8981 111.358 94.769 111.453 94.6739C111.548 94.5787 111.677 94.5252 111.812 94.5252H118.409C118.544 94.5252 118.673 94.5787 118.768 94.6739C118.863 94.769 118.917 94.8981 118.917 95.0327C118.917 95.1673 118.863 95.2964 118.768 95.3916C118.673 95.4867 118.544 95.5402 118.409 95.5402Z" fill="black"/>
<path d="M124.012 95.5402H119.343C119.209 95.5402 119.08 95.4867 118.984 95.3916C118.889 95.2964 118.836 95.1673 118.836 95.0327C118.836 94.8981 118.889 94.769 118.984 94.6739C119.08 94.5787 119.209 94.5252 119.343 94.5252H124.012C124.147 94.5252 124.276 94.5787 124.371 94.6739C124.466 94.769 124.52 94.8981 124.52 95.0327C124.52 95.1673 124.466 95.2964 124.371 95.3916C124.276 95.4867 124.147 95.5402 124.012 95.5402Z" fill="black"/>
<path d="M114.136 99.6307H100.302C100.167 99.6307 100.038 99.5772 99.943 99.482C99.8478 99.3869 99.7944 99.2578 99.7944 99.1232C99.7944 98.9886 99.8478 98.8595 99.943 98.7643C100.038 98.6691 100.167 98.6157 100.302 98.6157H114.136C114.27 98.6183 114.398 98.6726 114.492 98.7672C114.587 98.8618 114.641 98.9894 114.644 99.1232C114.644 99.2578 114.59 99.3869 114.495 99.482C114.4 99.5772 114.271 99.6307 114.136 99.6307Z" fill="white"/>
<path d="M122.155 99.6307H115.923C115.788 99.6307 115.659 99.5772 115.564 99.482C115.469 99.3869 115.415 99.2578 115.415 99.1232C115.418 98.9894 115.472 98.8618 115.567 98.7672C115.661 98.6726 115.789 98.6183 115.923 98.6157H122.155C122.289 98.6183 122.416 98.6726 122.511 98.7672C122.605 98.8618 122.66 98.9894 122.662 99.1232C122.662 99.2578 122.609 99.3869 122.514 99.482C122.418 99.5772 122.289 99.6307 122.155 99.6307Z" fill="black"/>
<path d="M121.749 87.3593H116.938C116.803 87.3593 116.674 87.3059 116.579 87.2107C116.484 87.1155 116.43 86.9864 116.43 86.8518C116.43 86.7172 116.484 86.5881 116.579 86.493C116.674 86.3978 116.803 86.3443 116.938 86.3443H121.749C121.883 86.3443 122.012 86.3978 122.108 86.493C122.203 86.5881 122.256 86.7172 122.256 86.8518C122.256 86.9864 122.203 87.1155 122.108 87.2107C122.012 87.3059 121.883 87.3593 121.749 87.3593Z" fill="black"/>
<path d="M110.706 91.4498H107.163C107.029 91.4498 106.9 91.3963 106.804 91.3011C106.709 91.2059 106.656 91.0769 106.656 90.9423C106.656 90.8077 106.709 90.6786 106.804 90.5834C106.9 90.4882 107.029 90.4348 107.163 90.4348H110.706C110.84 90.4348 110.969 90.4882 111.064 90.5834C111.16 90.6786 111.213 90.8077 111.213 90.9423C111.213 91.0769 111.16 91.2059 111.064 91.3011C110.969 91.3963 110.84 91.4498 110.706 91.4498Z" fill="black"/>
<path d="M120.439 91.4498H112.035C111.901 91.4498 111.772 91.3963 111.676 91.3011C111.581 91.2059 111.528 91.0769 111.528 90.9423C111.528 90.8077 111.581 90.6786 111.676 90.5834C111.772 90.4882 111.901 90.4348 112.035 90.4348H120.439C120.574 90.4348 120.703 90.4882 120.798 90.5834C120.893 90.6786 120.947 90.8077 120.947 90.9423C120.947 91.0769 120.893 91.2059 120.798 91.3011C120.703 91.3963 120.574 91.4498 120.439 91.4498Z" fill="white"/>
<path d="M92.4051 82.2539H91.6439V83.2587H92.4051V82.2539Z" fill="black"/>
<path d="M92.4051 86.2733H91.6439V87.2781H92.4051V86.2733Z" fill="black"/>
<path d="M92.4051 90.3028H91.6439V91.3077H92.4051V90.3028Z" fill="black"/>
<path d="M92.4051 94.3222H91.6439V95.3271H92.4051V94.3222Z" fill="black"/>
<path d="M92.4051 98.3518H91.6439V99.3566H92.4051V98.3518Z" fill="black"/>
<path d="M92.4051 102.381H91.6439V103.386H92.4051V102.381Z" fill="black"/>
<path d="M92.4051 106.401H91.6439V107.406H92.4051V106.401Z" fill="black"/>
<path d="M92.4051 110.43H91.6439V111.435H92.4051V110.43Z" fill="black"/>
<path d="M92.4051 114.45H91.6439V115.455H92.4051V114.45Z" fill="black"/>
<path d="M92.4051 118.479H91.6439V119.484H92.4051V118.479Z" fill="black"/>
<path d="M146.921 17.8318V16.695L151.285 14.0966L152.138 15.4669L149.022 17.2533L152.138 19.0397L151.285 20.4201L146.921 17.8318Z" fill="#68E1FD"/>
<path d="M212 18.943L215.116 17.1567L212 15.3702L212.853 14L217.217 16.5984V17.7048L212.853 20.3234L212 18.943Z" fill="#68E1FD"/>
<path d="M47.4203 163.21C46.1531 163.216 44.8884 163.097 43.6445 162.855C43.5235 162.831 43.4172 162.759 43.3487 162.656C43.2802 162.554 43.2552 162.428 43.2791 162.307C43.306 162.185 43.3794 162.079 43.4838 162.01C43.5881 161.942 43.715 161.917 43.8374 161.942C43.8983 161.942 50.8003 163.383 54.8907 160.104C56.9207 158.511 57.9357 156.044 57.9357 152.746C58.005 152.172 57.9245 151.59 57.7022 151.056C57.4799 150.523 57.1232 150.056 56.667 149.701C54.4543 148.31 50.0593 150.421 50.0187 150.442C49.9113 150.478 49.7943 150.474 49.6896 150.43C49.585 150.386 49.4998 150.306 49.4501 150.204C49.4003 150.102 49.3894 149.985 49.4194 149.876C49.4493 149.766 49.518 149.672 49.6127 149.609C49.8056 149.518 54.5152 147.254 57.1643 148.919C58.3011 149.63 58.8695 150.949 58.8594 152.796C58.8594 156.369 57.7023 159.089 55.4896 160.866C53.1366 162.525 50.2963 163.35 47.4203 163.21V163.21Z" fill="#231F20"/>
<path d="M28.9677 183.185C45.7903 183.185 59.4278 179.35 59.4278 174.619C59.4278 169.888 45.7903 166.052 28.9677 166.052C12.145 166.052 -1.49249 169.888 -1.49249 174.619C-1.49249 179.35 12.145 183.185 28.9677 183.185Z" fill="white"/>
<path d="M28.9677 183.693C11.601 183.693 -2 179.704 -2 174.619C-2 169.534 11.601 165.545 28.9677 165.545C46.3343 165.545 59.9455 169.524 59.9455 174.619C59.9455 179.714 46.3445 183.693 28.9677 183.693ZM28.9677 166.56C11.0529 166.56 -0.985 170.721 -0.985 174.619C-0.985 178.516 11.0529 182.678 28.9677 182.678C46.8824 182.678 58.9305 178.506 58.9305 174.619C58.9305 170.731 46.8926 166.56 28.9677 166.56Z" fill="#231F20"/>
<path d="M28.9676 176.517C36.1037 176.517 41.8886 175.317 41.8886 173.837C41.8886 172.357 36.1037 171.158 28.9676 171.158C21.8316 171.158 16.0467 172.357 16.0467 173.837C16.0467 175.317 21.8316 176.517 28.9676 176.517Z" fill="#D1D3D4"/>
<path d="M53.4494 140.525C53.4494 144.9 51.0642 174.832 28.9676 174.832C6.87107 174.832 4.49597 144.92 4.49597 140.525C4.49597 136.13 15.458 132.588 28.9676 132.588C42.4773 132.588 53.4494 136.161 53.4494 140.525Z" fill="white"/>
<path d="M28.9677 175.309C19.5891 175.309 12.342 169.848 8.01806 159.516C5.6013 153.463 4.25168 147.038 4.02911 140.525C4.02911 135.805 14.9911 132.121 28.9677 132.121C42.9442 132.121 53.9164 135.805 53.9164 140.525C53.6915 147.031 52.3419 153.45 49.9274 159.495C45.6035 169.848 38.3564 175.309 28.9677 175.309ZM28.9677 133.065C15.9554 133.065 4.96291 136.485 4.96291 140.545C4.96291 140.88 5.97791 174.385 28.9677 174.385C51.9574 174.385 52.9826 140.89 52.9826 140.545C52.9826 136.465 41.9901 133.065 28.9677 133.065Z" fill="#231F20"/>
<path d="M28.9676 148.483C42.4829 148.483 53.4393 144.929 53.4393 140.545C53.4393 136.162 42.4829 132.608 28.9676 132.608C15.4523 132.608 4.49597 136.162 4.49597 140.545C4.49597 144.929 15.4523 148.483 28.9676 148.483Z" fill="#231F20"/>
<path d="M28.9677 148.99C14.9607 148.99 3.98853 145.275 3.98853 140.545C3.98853 135.815 14.9607 132.101 28.9677 132.101C42.9747 132.101 53.957 135.805 53.957 140.525C53.957 145.245 42.9848 148.99 28.9677 148.99ZM28.9677 133.116C14.6359 133.116 5.00353 136.952 5.00353 140.545C5.00353 144.138 14.6359 147.975 28.9677 147.975C43.2995 147.975 52.942 144.128 52.942 140.525C52.942 136.922 43.2995 133.116 28.9677 133.116Z" fill="#231F20"/>
<path d="M157.678 14.6602V21.2168C157.674 21.9668 157.459 22.5449 157.033 22.9512C156.607 23.3574 156.014 23.5605 155.252 23.5605C154.924 23.5605 154.613 23.5273 154.32 23.4609V21.9668C154.547 22.002 154.732 22.0195 154.877 22.0195C155.424 22.0195 155.697 21.748 155.697 21.2051V14.6602H157.678ZM155.551 13.0254C155.551 12.7441 155.652 12.5137 155.855 12.334C156.059 12.1543 156.322 12.0645 156.646 12.0645C156.971 12.0645 157.234 12.1543 157.438 12.334C157.641 12.5137 157.742 12.7441 157.742 13.0254C157.742 13.3066 157.641 13.5371 157.438 13.7168C157.234 13.8965 156.971 13.9863 156.646 13.9863C156.322 13.9863 156.059 13.8965 155.855 13.7168C155.652 13.5371 155.551 13.3066 155.551 13.0254ZM162.371 21C162.301 20.8711 162.238 20.6816 162.184 20.4316C161.82 20.8887 161.312 21.1172 160.66 21.1172C160.062 21.1172 159.555 20.9375 159.137 20.5781C158.719 20.2148 158.51 19.7598 158.51 19.2129C158.51 18.5254 158.764 18.0059 159.271 17.6543C159.779 17.3027 160.518 17.127 161.486 17.127H162.096V16.793C162.096 16.2109 161.844 15.9199 161.34 15.9199C160.871 15.9199 160.637 16.1504 160.637 16.6113H158.662C158.662 15.998 158.922 15.5 159.441 15.1172C159.965 14.7344 160.631 14.543 161.439 14.543C162.248 14.543 162.887 14.7402 163.355 15.1348C163.824 15.5293 164.064 16.0703 164.076 16.7578V19.5645C164.084 20.1465 164.174 20.5918 164.346 20.9004V21H162.371ZM161.135 19.7109C161.381 19.7109 161.584 19.6582 161.744 19.5527C161.908 19.4473 162.025 19.3281 162.096 19.1953V18.1816H161.521C160.834 18.1816 160.49 18.4902 160.49 19.1074C160.49 19.2871 160.551 19.4336 160.672 19.5469C160.793 19.6562 160.947 19.7109 161.135 19.7109ZM167.609 18.6504L168.611 14.6602H170.691L168.623 21H166.607L164.539 14.6602H166.625L167.609 18.6504ZM174.758 21C174.688 20.8711 174.625 20.6816 174.57 20.4316C174.207 20.8887 173.699 21.1172 173.047 21.1172C172.449 21.1172 171.941 20.9375 171.523 20.5781C171.105 20.2148 170.896 19.7598 170.896 19.2129C170.896 18.5254 171.15 18.0059 171.658 17.6543C172.166 17.3027 172.904 17.127 173.873 17.127H174.482V16.793C174.482 16.2109 174.23 15.9199 173.727 15.9199C173.258 15.9199 173.023 16.1504 173.023 16.6113H171.049C171.049 15.998 171.309 15.5 171.828 15.1172C172.352 14.7344 173.018 14.543 173.826 14.543C174.635 14.543 175.273 14.7402 175.742 15.1348C176.211 15.5293 176.451 16.0703 176.463 16.7578V19.5645C176.471 20.1465 176.561 20.5918 176.732 20.9004V21H174.758ZM173.521 19.7109C173.768 19.7109 173.971 19.6582 174.131 19.5527C174.295 19.4473 174.412 19.3281 174.482 19.1953V18.1816H173.908C173.221 18.1816 172.877 18.4902 172.877 19.1074C172.877 19.2871 172.938 19.4336 173.059 19.5469C173.18 19.6562 173.334 19.7109 173.521 19.7109ZM180.881 19.2188C180.881 19.0508 180.793 18.916 180.617 18.8145C180.441 18.7129 180.107 18.6074 179.615 18.498C179.123 18.3887 178.717 18.2461 178.396 18.0703C178.076 17.8906 177.832 17.6738 177.664 17.4199C177.496 17.166 177.412 16.875 177.412 16.5469C177.412 15.9648 177.652 15.4863 178.133 15.1113C178.613 14.7324 179.242 14.543 180.02 14.543C180.855 14.543 181.527 14.7324 182.035 15.1113C182.543 15.4902 182.797 15.9883 182.797 16.6055H180.816C180.816 16.0977 180.549 15.8438 180.014 15.8438C179.807 15.8438 179.633 15.9023 179.492 16.0195C179.352 16.1328 179.281 16.2754 179.281 16.4473C179.281 16.623 179.367 16.7656 179.539 16.875C179.711 16.9844 179.984 17.0742 180.359 17.1445C180.738 17.2148 181.07 17.2988 181.355 17.3965C182.309 17.7246 182.785 18.3125 182.785 19.1602C182.785 19.7383 182.527 20.209 182.012 20.5723C181.5 20.9355 180.836 21.1172 180.02 21.1172C179.477 21.1172 178.992 21.0195 178.566 20.8242C178.141 20.6289 177.809 20.3633 177.57 20.0273C177.332 19.6914 177.213 19.3379 177.213 18.9668H179.059C179.066 19.2598 179.164 19.4746 179.352 19.6113C179.539 19.7441 179.779 19.8105 180.072 19.8105C180.342 19.8105 180.543 19.7559 180.676 19.6465C180.812 19.5371 180.881 19.3945 180.881 19.2188ZM186.395 19.5938C186.672 19.5938 186.887 19.5195 187.039 19.3711C187.191 19.2188 187.266 19.0078 187.262 18.7383H189.113C189.113 19.4336 188.863 20.0039 188.363 20.4492C187.867 20.8945 187.227 21.1172 186.441 21.1172C185.52 21.1172 184.793 20.8281 184.262 20.25C183.73 19.6719 183.465 18.8711 183.465 17.8477V17.7656C183.465 17.125 183.582 16.5605 183.816 16.0723C184.055 15.5801 184.396 15.2031 184.842 14.9414C185.287 14.6758 185.814 14.543 186.424 14.543C187.248 14.543 187.902 14.7715 188.387 15.2285C188.871 15.6855 189.113 16.3047 189.113 17.0859H187.262C187.262 16.7578 187.182 16.5059 187.021 16.3301C186.861 16.1543 186.646 16.0664 186.377 16.0664C185.865 16.0664 185.566 16.3926 185.48 17.0449C185.453 17.252 185.439 17.5371 185.439 17.9004C185.439 18.5371 185.516 18.9785 185.668 19.2246C185.82 19.4707 186.062 19.5938 186.395 19.5938ZM193.783 16.4473L193.133 16.4004C192.512 16.4004 192.113 16.5957 191.938 16.9863V21H189.963V14.6602H191.814L191.879 15.4746C192.211 14.8535 192.674 14.543 193.268 14.543C193.479 14.543 193.662 14.5664 193.818 14.6133L193.783 16.4473ZM196.578 21H194.598V14.6602H196.578V21ZM194.48 13.0254C194.48 12.7441 194.582 12.5137 194.785 12.334C194.988 12.1543 195.252 12.0645 195.576 12.0645C195.9 12.0645 196.164 12.1543 196.367 12.334C196.57 12.5137 196.672 12.7441 196.672 13.0254C196.672 13.3066 196.57 13.5371 196.367 13.7168C196.164 13.8965 195.9 13.9863 195.576 13.9863C195.252 13.9863 194.988 13.8965 194.785 13.7168C194.582 13.5371 194.48 13.3066 194.48 13.0254ZM203.686 17.877C203.686 18.8613 203.463 19.6484 203.018 20.2383C202.576 20.8242 201.979 21.1172 201.225 21.1172C200.643 21.1172 200.164 20.9043 199.789 20.4785V23.4375H197.814V14.6602H199.66L199.719 15.2461C200.098 14.7773 200.596 14.543 201.213 14.543C201.994 14.543 202.602 14.832 203.035 15.4102C203.469 15.9844 203.686 16.7754 203.686 17.7832V17.877ZM201.711 17.7539C201.711 16.6289 201.383 16.0664 200.727 16.0664C200.258 16.0664 199.945 16.2344 199.789 16.5703V19.0664C199.961 19.418 200.277 19.5938 200.738 19.5938C201.367 19.5938 201.691 19.0508 201.711 17.9648V17.7539ZM206.861 13.084V14.6602H207.904V16.0312H206.861V18.9316C206.861 19.1699 206.904 19.3359 206.99 19.4297C207.076 19.5234 207.246 19.5703 207.5 19.5703C207.695 19.5703 207.859 19.5586 207.992 19.5352V20.9473C207.637 21.0605 207.266 21.1172 206.879 21.1172C206.199 21.1172 205.697 20.957 205.373 20.6367C205.049 20.3164 204.887 19.8301 204.887 19.1777V16.0312H204.078V14.6602H204.887V13.084H206.861Z" fill="#68E1FD"/>
</svg>
